<?xml version="1.0" encoding="utf-8"?>
<!-- Generator: Adobe Illustrator 26.3.1, SVG Export Plug-In . SVG Version: 6.00 Build 0)  -->
<svg version="1.1" id="Layer_1" xmlns="http://www.w3.org/2000/svg" xmlns:xlink="http://www.w3.org/1999/xlink" x="0px" y="0px"
	 viewBox="0 0 293.6 280.5" style="enable-background:new 0 0 293.6 280.5;" xml:space="preserve">
<style type="text/css">
	.st0{fill:#04233B;}
	.st1{fill:#47C1D2;}
	.st2{fill:#ED5257;}
	.st3{fill:#0672A4;}
	.st4{fill:#F0F4E9;}
	.st5{fill:#003046;}
</style>
<g>
	<path class="st0" d="M146.3,5c8.7,0,17.3,0,26,0c12.4,0,24.2,2.7,35.8,7.1c7,2.7,13.8,5.7,20.1,9.6c5.4,3.3,10.5,7,15.4,11
		c8.7,7,15.5,15.6,21.7,24.7c5.2,7.5,9.1,15.6,12.4,24.1c4.2,10.9,6.7,22.3,7.7,33.9c0.9,11.1,0.8,22.2-1.2,33.2
		c-2.3,12.5-5.5,24.5-11.1,35.9c-2.8,5.7-6.4,11.1-10.1,16.4c-5.1,7.4-11.5,13.6-17.8,19.8c-4.3,4.2-9.4,7.3-14.5,10.5
		c-5.9,3.7-12.2,6.4-18.3,9.6c-2.9,1.5-6,1.7-9,2.7c-10.2,3.2-20.7,3.3-31.2,3.1c-3.4-0.1-6.9,0.1-10.3,0
		c-8.2-0.3-16.4,0.6-24.7,0.5c-3.3,0-6.7,0.2-10-0.4c-4.8-1-8.5,2-12.5,3.8c-6.2,2.7-12.4,5.4-18.4,8.4c-4.9,2.5-10.5,3.4-15,6.3
		c-5,3.3-10.7,3.1-15.9,5.1c-5.9,2.3-12.1,3.7-18.3,4.8c-2.3,0.4-4.5,0.8-6.9,0.8c-3.6,0-6-1.8-7.7-4.7c-1.3-2.3-0.3-7.3,1.7-9.4
		c8.3-9.1,14.2-19.6,18.3-31.2c1.8-5,1.8-5.1-2.4-8.6c-7.6-6.4-13.5-14.2-19.6-22c-7.7-9.9-12.7-21.2-16.5-32.9
		c-3.2-9.8-5.3-19.9-5.8-30.3c-0.3-6.7,0-13.3,0.3-20c0.5-10.3,2.4-20.5,5.9-30.3c2.2-6,4-12.2,7.3-17.7c4.9-8.1,9.8-16.2,16.2-23.3
		c3.7-4.1,7.5-8,11.5-11.8c6.7-6.4,14.4-11.4,22.6-15.8c6-3.1,12.1-5.9,18.3-8.5C91.8,9.1,93.5,9,95,8.6c9.7-2.7,19.6-3.7,29.7-3.6
		C131.9,5.1,139.1,5,146.3,5z M99.1,243.1c4.4-1.4,8.6-3.4,12.6-5.6c5.3-2.8,10.6-5.1,16.8-4.3c3.5,0.3,6.9,0.9,10.5,0.9
		c12.7-0.1,25.4-0.2,38.1,0c21,0.2,39.6-6.4,55.8-19.5c15.6-12.6,26.9-28.6,33.6-47.6c3.8-10.6,5.5-21.5,5-32.8
		c0.2-4-1.9-6.8-5.7-7.5c-3.5-0.6-6.7,1.7-7.7,5.5c-0.6,0.4-0.4,1.1-0.4,1.7c-0.1,4.5-0.8,8.9-1.6,13.3c-3.2,17.4-10.7,32.7-23,45.4
		c-16.2,16.7-36,25.4-59.4,25.3c-15.1-0.1-30.2,0.1-45.3,0.1c-3.5,0-6.4,0.9-7.9,4.4c-1.2-0.1-1.8,0.8-2.6,1.5
		c-3.7,3.2-7,6.9-10.6,10.4C104.5,237,101,239.4,99.1,243.1c-0.1,0-0.2,0-0.2,0.1c0,0,0.1,0.1,0.1,0.1C99,243.2,99,243.1,99.1,243.1
		z M83.5,175.1c-1.7-1.6-3.7-2.7-6.2-2.4c-0.7-0.9-1.4-1.7-2.1-2.6c0.1-0.9,0-1.6-1.1-1.6c-0.1-0.2-0.3-0.3-0.4-0.5
		c-0.2-0.2-0.4-0.4-0.6-0.6c-7.3-10.9-11.5-22.7-11.3-35.9c0-2.2,0-4.3,0-6.5c0-0.7,0-1.5,0-2.2c0.1-0.8,0.3-1.5-0.3-2.2
		c-2-2.9-5.3-3.6-8.2-1.7c-2.6,1.7-4.1,4.1-4.2,7.4c-0.4,19.2,3.5,37.2,16.2,52.2c4.2,5,7.3,9.8,6.3,16.4c0.1,9.7-0.5,19.3-3,28.7
		c-2.1,7.5-5.1,14.6-8.8,21.4c-0.4,0.3-0.7,0.6-1,1.1c-2.2,3.3-4.4,6.5-7,9.5c-2.5,2.8-5.2,5.4-7.8,8.3c2.1,0.2,2.1,0.2,4.6-0.7
		c15-5.7,27.8-14.8,39.2-25.8c10.2-9.8,19.9-20.2,29.6-30.4c1.2-1.2,2.3-1.7,4-1.7c18.5,0,37.1-0.1,55.6-0.2c2.3,0,4.7,0,6.9-0.3
		c11.5-1.7,21.6-6.4,30.9-13.3c6.5-4.8,11.7-10.8,16.3-17.3c8.6-12.3,12.7-26.1,13.7-40.9c0.6-9.1,0.2-18.2-2-27.1
		c-2.2-8.8-5.9-16.9-10.8-24.5c-0.3-0.6-0.6-1.2-1-1.8c-9.5-13.6-21.9-23.5-37.3-29.7c-3.8-1.6-4.2-1.4-4.3,2.7
		c-0.2,5.5-3.5,8.8-8.8,8.8c-3.7-1.8-6.5-4.2-6.5-8.8c0.5-5.2-1.8-7.7-7-7.8c-0.5,0-1,0-1.5,0c-13.4,0-26.8,0.2-40.2,0
		c-15.6-0.3-29.1,5.5-41.9,13.5c-9.3,5.9-16.7,14-22.5,23.3c-0.4-0.5-0.7-1.3-1.6-0.8c-0.8,0.5-0.4,1.1,0,1.7
		c0.2,0.3,0.2,0.6,0.3,0.9c-3.6,7.1-6.9,14.3-8.7,22.2c4.2,0,8.2,0,12.2,0c1.2,0,1.4-0.5,1.9-1.6c3.7-8.7,7.6-17.3,15-23.7
		c0.3,0,0.7,0,1,0c2.7-0.2,5.1,0,6.6,2.7c1.6,2.9,0.8,5.3-1.2,7.7c-2,2.4-3.9,4.9-5.2,7.8c-0.8,1.6-0.7,3.6-2,5
		c-1.4,2.6-2.1,5.4-2.8,8.2c-3.6,13.6-2.8,26.8,2.9,39.7c1.8,4.1,3.4,8.5,6.7,11.8c-0.6,1.5,1.6,2.8,0.6,4c-1.1,1.3-0.9,2.6-1.2,3.9
		c-0.4,1.5-0.2,3.2-1.3,4.5c-0.1-0.1-0.2-0.2-0.1-0.4C83.9,175.5,83.7,175.3,83.5,175.1z M144.9,18.1
		C144.9,18.1,144.9,18.1,144.9,18.1c-9,0-18-0.1-27,0C99.4,18.3,83,25,67.9,35c-11.5,7.7-20.8,17.7-28.6,29.2
		c-12.9,19.2-18.2,40.5-17.5,63.4c0.2,5.6,5.5,8.6,10.5,6.1c2.7-1.4,3.9-3.7,3.8-6.7c-0.3-13.2,1.8-26,7-38.2
		c7.7-18,19.7-32.5,36.4-42.8c13.9-8.5,28.9-13.2,45.3-13.2c14.5,0,29,0,43.5,0c9.9,0,19.7,1.5,28.9,5.2
		c31.7,12.6,51.4,35.7,59,68.9c2,8.8,2.6,7.7,9.9,7.7c4.3,0,5.3-1.1,5-5.5c-1-14.2-6-27.1-13-39.2c-9.9-17-23.6-30.4-41-39.9
		c-14-7.6-28.9-12.2-45-12C163.1,18.2,154,18.1,144.9,18.1z M57.9,211.5c0-5.4-0.2-10.1,0.1-14.8c0.2-3.9-1-6.8-3.5-9.7
		c-4.5-5.2-7.9-11.2-10.6-17.4c-2.8-6.3-5.4-12.7-6.5-19.6c-0.3-2-1.4-3.3-3.6-3.4c-2.5-0.1-5-0.1-7.5-0.1c-2.3,0-3.4,1.3-3.1,3.7
		c0.2,1.6,0.5,3.2,0.8,4.8c3.9,18.5,12.7,34.4,25.2,48.4C51.9,206.1,54.4,208.9,57.9,211.5z"/>
	<path class="st1" d="M79.4,103.9c1.3-1.4,1.2-3.4,2-5c1.4-2.9,3.2-5.4,5.2-7.8c2.1-2.4,2.8-4.8,1.2-7.7c-1.5-2.7-4-2.9-6.6-2.7
		c-0.3,0-0.7,0-1,0c0.3-0.4,0.6-0.9,0.9-1.2c12.5-12.7,27.7-19.6,45.4-20.2c12.2-0.5,24.5-0.1,36.8,0c4.9,0,8.6-1.8,10.9-6.2
		c0,4.5,2.7,7,6.5,8.8c-0.7,3.3,0.5,5.8,3,8.1c6.8,6.3,13.4,12.9,20,19.4c0.8,0.8,1.5,1.4,1.5,2.8c-0.1,3.5,2.4,6.5,5.5,7.2
		c3.2,0.7,6.3-0.7,7.8-3.6c1.6-3.2,0.8-6.6-2.1-9c-0.9-0.7-1.7-1.5-2.2-2.4c-1.5-2.6-0.1-6.5,2.7-7.9c2.4-1.1,6.4,0.1,6.9,2.6
		c0.6,3.1,2.3,3,4.6,2.8c1.3-0.1,2.6,0,3.9,0c4.9,7.6,8.6,15.7,10.8,24.5c2.3,8.9,2.7,18,2,27.1c-1,14.8-5.1,28.6-13.7,40.9
		c-4.6,6.5-9.8,12.5-16.3,17.3c-9.3,6.9-19.4,11.6-30.9,13.3c-2.3,0.3-4.6,0.3-6.9,0.3c-18.5,0.1-37.1,0.2-55.6,0.2
		c-1.7,0-2.8,0.5-4,1.7c-9.8,10.3-19.4,20.6-29.6,30.4c-11.5,11.1-24.3,20.1-39.2,25.8c-2.4,0.9-2.5,0.9-4.6,0.7
		c2.6-2.8,5.3-5.4,7.8-8.3c2.6-3,4.8-6.2,7-9.5c0.3-0.4,0.6-0.8,1-1.1c0.5,0.4,0.8,0,1.1-0.3c7.2-6.9,14.1-14.3,20.6-21.9
		c1.4-1.6,3.1-2.9,3.5-5.2c0.1,1,0.4,1.1,1.1,0.3c8.6-9.1,17.2-18.3,25.9-27.4c1.2-0.5,2.5-0.5,3.8-0.5c8,0,16,0,24.1,0
		c7.7,0.7,15.4,0.2,23.1,0.3c1.2,0,2.4-0.4,3.4-1c2.6-1.4,4-4.1,3.4-6.3c-0.8-2.7-3.1-4.4-6.2-4.4c-2,0-4-0.1-5.9,0.1
		c-3.2,0.3-5.7-0.3-8.2-2.8c-11.6-11.6-23.5-23-35.3-34.5c-1-1-2-1.9-2.3-3.3c3.7-7.1,2.1-14.2-4.3-19.4c-5.1-4.1-12.6-3.7-18.4,1
		c-0.2,0.2-0.4,0.4-0.5,0.5c0,0,0,0,0,0c-1.1,0.3-1.9-0.3-2.4-1.1C82.6,114.7,79.2,110.1,79.4,103.9z M163.9,131.2
		c0-8.4-6.3-15-14.6-15.1c-7.8-0.1-14.6,6.6-14.6,14.5c-0.1,8.5,6.2,14.9,14.6,14.9C156.9,145.5,163.9,138.7,163.9,131.2z
		 M186.5,130.6c0,8.9,5.6,14.6,14.5,14.6c8.2,0,14.5-6.4,14.4-15.1c0-7.1-6-14.1-14.5-14.1C192.8,116.1,186.5,122.4,186.5,130.6z"/>
	<path class="st2" d="M144.9,18.1c9.1,0,18.2,0.1,27.3,0c16.1-0.2,31,4.3,45,12c17.4,9.5,31.1,22.9,41,39.9c7,12.1,12.1,25,13,39.2
		c0.3,4.4-0.7,5.5-5,5.5c-7.2,0.1-7.8,1.1-9.9-7.7c-7.6-33.1-27.3-56.3-59-68.9c-9.3-3.7-19-5.1-28.9-5.2c-14.5,0-29,0-43.5,0
		c-16.4,0-31.5,4.7-45.3,13.2C62.8,56.4,50.8,70.8,43.1,88.8c-5.2,12.2-7.3,25-7,38.2c0.1,3.1-1.1,5.4-3.8,6.7
		c-5,2.5-10.4-0.5-10.5-6.1c-0.7-22.9,4.6-44.1,17.5-63.4C47.1,52.7,56.4,42.8,67.9,35C83,25,99.4,18.3,117.9,18.1
		C126.9,18,135.9,18.1,144.9,18.1C144.9,18.1,144.9,18.1,144.9,18.1z"/>
	<path class="st1" d="M271.5,134.2c0.4,11.2-1.3,22.1-5,32.8c-6.8,19-18,35-33.6,47.6c-16.2,13.1-34.8,19.8-55.8,19.5
		c-12.7-0.1-25.4-0.1-38.1,0c-3.5,0-7-0.6-10.5-0.9c-0.4-1-1.4-1.1-2.2-1.6c-3.3-2.2-6-4.8-5.8-9.2c1.5-3.5,4.4-4.4,7.9-4.4
		c15.1,0,30.2-0.1,45.3-0.1c23.5,0.1,43.3-8.6,59.4-25.3c12.3-12.7,19.8-28,23-45.4c0.8-4.4,1.5-8.8,1.6-13.3c0-0.6-0.2-1.2,0.4-1.7
		c0.5,2.7,2.1,1.7,3.3,0.9c2.7-2,5.3-1.5,7.8,0.3C269.9,133.8,270.5,134.5,271.5,134.2z"/>
	<path class="st3" d="M111.8,138.2c0.4,1.4,1.3,2.4,2.3,3.3c11.8,11.5,23.7,22.8,35.3,34.5c2.5,2.5,5,3.1,8.2,2.8
		c2-0.2,3.9-0.1,5.9-0.1c3.1,0,5.4,1.7,6.2,4.4c0.6,2.2-0.8,4.9-3.4,6.3c-1.1,0.6-2.2,1-3.4,1c-7.7-0.1-15.4,0.3-23.1-0.3
		c-0.3-4.6-1.7-8.5-6.2-10.6c-0.4-0.1-0.7-0.2-1.1-0.3c-0.1-0.1-0.2-0.1-0.4-0.1c-0.9-0.6-2-0.4-3-0.4c-5.6,0-11.2,0-16.7,0
		c-3.9,0-7.6-1.2-11.1-2.9c-6-2.9-10.6-7.4-15.1-12.1c-3.3-3.3-4.8-7.7-6.7-11.8c-5.7-12.9-6.5-26.1-2.9-39.7
		c0.7-2.8,1.4-5.6,2.8-8.2c-0.1,6.2,3.2,10.8,6.8,15.4c0.6,0.7,1.4,1.3,2.4,1.1c-0.2,0.3-0.4,0.6-0.6,0.8c-6.1,7-4.5,17.6,3.4,22.4
		C97.4,147.2,106.6,146.2,111.8,138.2z"/>
	<path class="st4" d="M174.1,52.9c-2.3,4.5-5.9,6.3-10.9,6.2c-12.3-0.1-24.5-0.4-36.8,0c-17.7,0.7-32.9,7.5-45.4,20.2
		c-0.4,0.4-0.6,0.8-0.9,1.2c-7.4,6.4-11.3,15-15,23.7c-0.4,1-0.7,1.6-1.9,1.6c-4-0.1-8,0-12.2,0c1.9-8,5.2-15.1,8.7-22.2
		c0.8-0.3,1-1,1.2-1.8c5.9-9.4,13.2-17.5,22.5-23.3c12.7-8,26.3-13.8,41.9-13.5c13.4,0.2,26.8,0,40.2,0c0.5,0,1,0,1.5,0
		C172.3,45.3,174.6,47.8,174.1,52.9z"/>
	<path class="st4" d="M232,81.7c-1.3,0-2.6-0.1-3.9,0c-2.3,0.2-4,0.4-4.6-2.8c-0.5-2.5-4.4-3.8-6.9-2.6c-2.9,1.3-4.2,5.2-2.7,7.9
		c0.6,1,1.4,1.7,2.2,2.4c2.9,2.4,3.7,5.8,2.1,9c-1.4,2.9-4.5,4.3-7.8,3.6c-3.1-0.7-5.5-3.7-5.5-7.2c0-1.4-0.7-2-1.5-2.8
		c-6.7-6.5-13.2-13.1-20-19.4c-2.5-2.3-3.7-4.8-3-8.1c5.3,0,8.6-3.3,8.8-8.8c0.1-4.1,0.5-4.3,4.3-2.7C209,56.5,221.5,66.4,231,80
		C231.4,80.5,231.7,81.2,232,81.7z"/>
	<path class="st1" d="M57.9,211.5c-3.6-2.6-6-5.4-8.5-8.2c-12.5-14-21.4-29.9-25.2-48.4c-0.3-1.6-0.6-3.2-0.8-4.8
		c-0.3-2.4,0.7-3.7,3.1-3.7c2.5-0.1,5,0,7.5,0.1c2.2,0,3.2,1.4,3.6,3.4c1.1,6.9,3.8,13.3,6.5,19.6c2.7,6.2,6.1,12.3,10.6,17.4
		c2.5,2.9,3.7,5.9,3.5,9.7C57.7,201.4,57.9,206.1,57.9,211.5z"/>
	<path class="st5" d="M86.2,163.6c4.5,4.7,9.1,9.3,15.1,12.1c3.5,1.7,7.2,2.9,11.1,2.9c5.6,0,11.2,0,16.7,0c1,0,2.1-0.2,3,0.4
		c-4.3-0.3-8.5,1.4-12.8,0.1c-0.4-0.1-0.9-0.1-1.2,0.1c-1.7,1.2-3.6,0.9-5.4,0.5c-0.8-0.2-1.6,0-2.1,0.7c-0.6,0.9,0.3,1.3,0.9,1.8
		c2.6,2.4,2.7,3.1,0.7,6c-0.6,0.8-0.7,1.5-0.2,2.3c-8.6,9.1-17.3,18.2-25.9,27.4c-0.7,0.8-1,0.7-1.1-0.3c0-12.1,0.1-24.3,0.1-36.4
		c0-1.8-0.2-3.6-0.9-5.2c1.2-1.3,1-3,1.3-4.5c0.3-1.3,0.1-2.7,1.2-3.9C87.8,166.5,85.6,165.1,86.2,163.6z"/>
	<path class="st3" d="M71.6,194.9c0.9-6.7-2.1-11.4-6.3-16.4c-12.7-15-16.6-33-16.2-52.2c0.1-3.4,1.6-5.7,4.2-7.4
		c2.9-1.9,6.2-1.2,8.2,1.7c-0.2,0.8-0.1,1.5,0.3,2.2c0,0.7,0,1.5,0,2.2c-0.6,2.2-0.6,4.3,0,6.5c-0.2,13.2,4,25,11.3,35.9
		c0.2,0.2,0.4,0.4,0.6,0.6c0.1,0.2,0.3,0.3,0.4,0.5c0.1,0.7,0.4,1.3,1.1,1.6c0.7,0.9,1.4,1.7,2.1,2.6c-4.3,1.6-5.7,3.8-5.7,8.5
		C71.6,185.7,71.6,190.3,71.6,194.9z"/>
	<path class="st4" d="M71.6,194.9c0-4.6,0-9.2,0-13.8c0-4.7,1.5-6.9,5.7-8.5c2.5-0.2,4.4,0.8,6.2,2.4c0.2,0.2,0.4,0.4,0.5,0.6
		c0,0.2,0,0.3,0.1,0.4c0.7,1.7,0.9,3.4,0.9,5.2C85,193.4,85,205.6,85,217.7c-0.4,2.3-2.1,3.6-3.5,5.2c-6.5,7.6-13.3,14.9-20.6,21.9
		c-0.3,0.3-0.6,0.7-1.1,0.3c3.7-6.8,6.7-13.9,8.8-21.4C71.2,214.2,71.7,204.6,71.6,194.9z"/>
	<path class="st5" d="M120.5,222.4c-0.2,4.4,2.5,7,5.8,9.2c0.8,0.5,1.8,0.6,2.2,1.6c-6.2-0.8-11.5,1.4-16.8,4.3
		c-4.1,2.2-8.2,4.2-12.6,5.6L99,243c2-3.6,5.5-6,8.4-8.8c3.5-3.4,6.8-7.1,10.6-10.4C118.7,223.2,119.3,222.3,120.5,222.4z"/>
	<path class="st4" d="M271.5,134.2c-1,0.3-1.6-0.4-2.3-0.8c-2.5-1.7-5-2.3-7.8-0.3c-1.2,0.9-2.9,1.9-3.3-0.9c1-3.9,4.2-6.1,7.7-5.5
		C269.6,127.4,271.7,130.1,271.5,134.2z"/>
	<path class="st5" d="M61,81.9c-0.2,0.7-0.4,1.5-1.2,1.8c-0.1-0.3-0.1-0.7-0.3-0.9c-0.4-0.6-0.9-1.2,0-1.7
		C60.3,80.6,60.7,81.4,61,81.9z"/>
	<path class="st5" d="M61.9,131.4c-0.6-2.2-0.6-4.3,0-6.5C61.9,127.1,61.9,129.2,61.9,131.4z"/>
	<path class="st5" d="M75.2,170c-0.7-0.3-1-0.9-1.1-1.6C75.3,168.4,75.3,169.2,75.2,170z"/>
	<path class="st5" d="M61.9,122.7c-0.4-0.7-0.5-1.4-0.3-2.2C62.1,121.1,61.9,121.9,61.9,122.7z"/>
	<path class="st5" d="M84,175.6c-0.2-0.2-0.4-0.4-0.5-0.6C83.7,175.3,83.9,175.5,84,175.6z"/>
	<path class="st5" d="M73.7,167.9c-0.2-0.2-0.4-0.4-0.6-0.6C73.3,167.5,73.5,167.7,73.7,167.9z"/>
	<path class="st5" d="M99.1,243.1c0,0.1-0.1,0.1-0.1,0.2c0,0-0.1-0.1-0.1-0.1C98.9,243.1,98.9,243,99.1,243.1
		C99,243,99.1,243.1,99.1,243.1z"/>
	<path class="st0" d="M111.8,138.2c-5.2,8-14.4,8.9-20.3,5.3c-7.9-4.8-9.6-15.4-3.4-22.4c0.2-0.3,0.4-0.6,0.6-0.8c0,0,0,0,0,0
		c0.2-0.2,0.4-0.4,0.5-0.5c5.8-4.7,13.3-5.1,18.4-1C113.9,124,115.5,131.1,111.8,138.2z"/>
	<path class="st0" d="M163.9,131.2c0,7.5-7,14.3-14.6,14.3c-8.4,0-14.6-6.4-14.6-14.9c0.1-8,6.8-14.6,14.6-14.5
		C157.6,116.2,164,122.9,163.9,131.2z"/>
	<path class="st0" d="M186.5,130.6c0-8.2,6.3-14.5,14.4-14.5c8.5,0,14.5,7,14.5,14.1c0,8.7-6.2,15.1-14.4,15.1
		C192.1,145.2,186.5,139.5,186.5,130.6z"/>
	<path class="st0" d="M112,190.6c-0.5-0.8-0.4-1.5,0.2-2.3c2.1-2.8,2-3.5-0.7-6c-0.6-0.5-1.4-0.9-0.9-1.8c0.4-0.7,1.2-0.9,2.1-0.7
		c1.9,0.4,3.7,0.7,5.4-0.5c0.3-0.2,0.9-0.3,1.2-0.1c4.3,1.2,8.5-0.5,12.8-0.1c0.1,0,0.3,0,0.4,0.1c0.2,0.8,0.4,1.3,1.1,0.3
		c4.5,2.1,5.9,6,6.2,10.6c-8,0-16,0-24.1,0C114.5,190.1,113.2,190.1,112,190.6z M123.5,189.3c0-0.1-0.1-0.2-0.1-0.3
		c-2.9,0-5.8,0-8.8,0c0,0.1,0,0.2,0,0.3C117.6,189.3,120.6,189.3,123.5,189.3z"/>
	<path class="st3" d="M89.2,119.8c-0.2,0.2-0.4,0.4-0.5,0.5C88.8,120.2,89,120,89.2,119.8z"/>
	<path class="st5" d="M133.6,179.5c-0.7,0.9-0.9,0.4-1.1-0.3C132.9,179.2,133.2,179.4,133.6,179.5z"/>
	<path class="st5" d="M123.5,189.3c-2.9,0-5.9,0-8.8,0c0-0.1,0-0.2,0-0.3c2.9,0,5.8,0,8.8,0C123.5,189.2,123.5,189.2,123.5,189.3z"
		/>
</g>
</svg>
