<?xml version="1.0" encoding="utf-8"?>
<!-- Generator: Adobe Illustrator 26.3.1, SVG Export Plug-In . SVG Version: 6.00 Build 0)  -->
<svg version="1.2" baseProfile="tiny" id="Layer_1" xmlns="http://www.w3.org/2000/svg" xmlns:xlink="http://www.w3.org/1999/xlink"
	 x="0px" y="0px" viewBox="0 0 612 792" overflow="visible" xml:space="preserve">
<path fill="#FFFFFF" d="M463.6,480.2c-0.8-3.3-2.3-6.1-3.6-8.3c-2.7-4.8-5.5-9.5-8.3-14.3c-2.6-4.5-5.2-8.9-7.7-13.4
	c6-13.4,9.6-28,11-44.5c1.8-21.3-1.6-42.7-10.2-63.6c-8.1-19.7-20.7-37.2-37.4-52c-21.5-19-46.6-30.6-74.8-34.8
	c-16.6-2.4-33.3-1.7-49.7,2.3c-45,10.8-77.8,36.3-97.5,75.9c-18,36.1-19.5,74.2-4.6,113.2c7.3,19,18.7,35.7,33.9,49.6
	c18.1,16.5,39.7,28,64.3,34c11.2,2.8,22.5,4.1,33.9,4.1c11,0,22-1.3,33-3.8c16.9-3.9,33.2-11,48.5-20.9c0.8-0.5,1.5-1,2.1-1.5
	c0.2-0.1,0.4-0.3,0.6-0.5c3.3-2.5,5.1-6.5,4.7-10.6c0-0.4-0.1-0.8-0.2-1.2c4.3,1.5,8.6,2.9,12.9,4.4l10.6,3.6c1.4,0.5,2.8,1,4.1,1.5
	c3.7,1.3,7.5,2.7,11.6,3.8c6.5,1.7,13.2,0,17.9-4.7C463.5,493.6,465.3,486.8,463.6,480.2z"/>
<image width="1124" height="1070" xlink:href="DCA20F2D.png"  transform="matrix(0.24 0 0 0.24 182.64 259.68)">
</image>
</svg>
