<?xml version="1.0" encoding="utf-8"?>
<!-- Generator: Adobe Illustrator 26.3.1, SVG Export Plug-In . SVG Version: 6.00 Build 0)  -->
<svg version="1.2" baseProfile="tiny" id="Layer_1" xmlns="http://www.w3.org/2000/svg" xmlns:xlink="http://www.w3.org/1999/xlink"
	 x="0px" y="0px" viewBox="0 0 291.5 48" overflow="visible" xml:space="preserve">
<g>
	<path fill="#04243B" d="M274.7,33.3H2.6c-1.4,0-2.6-1.2-2.6-2.6l0-0.1C0,29.2,1.2,28,2.6,28h272.1c1.4,0,2.6,1.2,2.6,2.6v0.1
		C277.3,32.2,276.1,33.3,274.7,33.3z"/>
	<g>
		<path fill="#04243B" d="M266.8,0c1.5,0,3.1,0,4.6,0c2.2,0,4.3,0.5,6.3,1.3c1.2,0.5,2.4,1,3.6,1.7c0.9,0.6,1.9,1.2,2.7,2
			c1.5,1.2,2.7,2.8,3.8,4.4c0.9,1.3,1.6,2.8,2.2,4.3c0.7,1.9,1.2,3.9,1.4,6c0.2,2,0.1,3.9-0.2,5.9c-0.4,2.2-1,4.3-2,6.4
			c-0.5,1-1.1,2-1.8,2.9c-0.9,1.3-2,2.4-3.2,3.5c-0.8,0.7-1.7,1.3-2.6,1.9c-1,0.7-2.2,1.1-3.2,1.7c-0.5,0.3-1.1,0.3-1.6,0.5
			c-1.8,0.6-3.7,0.6-5.5,0.6c-0.6,0-1.2,0-1.8,0c-1.5-0.1-2.9,0.1-4.4,0.1c-0.6,0-1.2,0-1.8-0.1c-0.8-0.2-1.5,0.4-2.2,0.7
			c-1.1,0.5-2.2,1-3.3,1.5c-0.9,0.4-1.9,0.6-2.7,1.1c-0.9,0.6-1.9,0.6-2.8,0.9c-1,0.4-2.1,0.7-3.2,0.9c-0.4,0.1-0.8,0.1-1.2,0.1
			c-0.6,0-1.1-0.3-1.4-0.8c-0.2-0.4,0-1.3,0.3-1.7c1.5-1.6,2.5-3.5,3.2-5.5c0.3-0.9,0.3-0.9-0.4-1.5c-1.3-1.1-2.4-2.5-3.5-3.9
			c-1.4-1.7-2.2-3.7-2.9-5.8c-0.6-1.7-0.9-3.5-1-5.4c0-1.2,0-2.4,0.1-3.5c0.1-1.8,0.4-3.6,1-5.4c0.4-1.1,0.7-2.2,1.3-3.1
			c0.9-1.4,1.7-2.9,2.9-4.1c0.7-0.7,1.3-1.4,2-2.1c1.2-1.1,2.5-2,4-2.8c1.1-0.6,2.1-1,3.2-1.5c0.3-0.1,0.6-0.1,0.8-0.2
			c1.7-0.5,3.5-0.7,5.2-0.6C264.2,0,265.5,0,266.8,0z M258.4,42.1c0.8-0.2,1.5-0.6,2.2-1c0.9-0.5,1.9-0.9,3-0.8
			c0.6,0.1,1.2,0.2,1.9,0.2c2.2,0,4.5,0,6.7,0c3.7,0,7-1.1,9.9-3.5c2.8-2.2,4.8-5.1,6-8.4c0.7-1.9,1-3.8,0.9-5.8
			c0-0.7-0.3-1.2-1-1.3c-0.6-0.1-1.2,0.3-1.4,1c-0.1,0.1-0.1,0.2-0.1,0.3c0,0.8-0.1,1.6-0.3,2.3c-0.6,3.1-1.9,5.8-4.1,8
			c-2.9,3-6.4,4.5-10.5,4.5c-2.7,0-5.3,0-8,0c-0.6,0-1.1,0.2-1.4,0.8c-0.2,0-0.3,0.1-0.5,0.3c-0.7,0.6-1.2,1.2-1.9,1.8
			C259.4,41.1,258.8,41.5,258.4,42.1C258.4,42.1,258.4,42.1,258.4,42.1C258.4,42.1,258.4,42.1,258.4,42.1
			C258.4,42.1,258.4,42.1,258.4,42.1z M255.7,30.1c-0.3-0.3-0.7-0.5-1.1-0.4c-0.1-0.2-0.2-0.3-0.4-0.5c0-0.2,0-0.3-0.2-0.3
			c0,0,0-0.1-0.1-0.1c0,0-0.1-0.1-0.1-0.1c-1.3-1.9-2-4-2-6.3c0-0.4,0-0.8,0-1.2c0-0.1,0-0.3,0-0.4c0-0.1,0-0.3-0.1-0.4
			c-0.4-0.5-0.9-0.6-1.5-0.3c-0.5,0.3-0.7,0.7-0.7,1.3c-0.1,3.4,0.6,6.6,2.9,9.2c0.8,0.9,1.3,1.7,1.1,2.9c0,1.7-0.1,3.4-0.5,5.1
			c-0.4,1.3-0.9,2.6-1.5,3.8c-0.1,0-0.1,0.1-0.2,0.2c-0.4,0.6-0.8,1.2-1.2,1.7c-0.4,0.5-0.9,1-1.4,1.5c0.4,0,0.4,0,0.8-0.1
			c2.7-1,4.9-2.6,6.9-4.6c1.8-1.7,3.5-3.6,5.2-5.4c0.2-0.2,0.4-0.3,0.7-0.3c3.3,0,6.6,0,9.8,0c0.4,0,0.8,0,1.2-0.1
			c2-0.3,3.8-1.1,5.5-2.3c1.1-0.8,2.1-1.9,2.9-3.1c1.5-2.2,2.2-4.6,2.4-7.2c0.1-1.6,0-3.2-0.4-4.8c-0.4-1.6-1-3-1.9-4.3
			c-0.1-0.1-0.1-0.2-0.2-0.3c-1.7-2.4-3.9-4.2-6.6-5.3c-0.7-0.3-0.7-0.3-0.8,0.5c0,1-0.6,1.6-1.6,1.6c-0.7-0.3-1.2-0.8-1.1-1.6
			c0.1-0.9-0.3-1.4-1.2-1.4c-0.1,0-0.2,0-0.3,0c-2.4,0-4.7,0-7.1,0c-2.8,0-5.2,1-7.4,2.4c-1.6,1-2.9,2.5-4,4.1
			c-0.1-0.1-0.1-0.2-0.3-0.1c-0.1,0.1-0.1,0.2,0,0.3c0,0,0,0.1,0.1,0.2c-0.6,1.3-1.2,2.5-1.5,3.9c0.7,0,1.5,0,2.2,0
			c0.2,0,0.3-0.1,0.3-0.3c0.6-1.5,1.3-3.1,2.6-4.2c0.1,0,0.1,0,0.2,0c0.5,0,0.9,0,1.2,0.5c0.3,0.5,0.1,0.9-0.2,1.4
			c-0.4,0.4-0.7,0.9-0.9,1.4c-0.1,0.3-0.1,0.6-0.4,0.9c-0.2,0.5-0.4,1-0.5,1.5c-0.6,2.4-0.5,4.7,0.5,7c0.3,0.7,0.6,1.5,1.2,2.1
			c-0.1,0.3,0.3,0.5,0.1,0.7c-0.2,0.2-0.2,0.5-0.2,0.7c-0.1,0.3,0,0.6-0.2,0.8c0,0,0,0,0-0.1C255.7,30.2,255.7,30.1,255.7,30.1z
			 M266.5,2.3C266.5,2.3,266.5,2.3,266.5,2.3c-1.6,0-3.2,0-4.8,0c-3.3,0-6.2,1.2-8.8,3c-2,1.4-3.7,3.1-5.1,5.2
			c-2.3,3.4-3.2,7.2-3.1,11.2c0,1,1,1.5,1.9,1.1c0.5-0.2,0.7-0.7,0.7-1.2c-0.1-2.3,0.3-4.6,1.2-6.8c1.4-3.2,3.5-5.7,6.4-7.6
			c2.5-1.5,5.1-2.3,8-2.3c2.6,0,5.1,0,7.7,0c1.8,0,3.5,0.3,5.1,0.9c5.6,2.2,9.1,6.3,10.4,12.2c0.4,1.6,0.5,1.4,1.7,1.4
			c0.8,0,0.9-0.2,0.9-1c-0.2-2.5-1.1-4.8-2.3-6.9c-1.8-3-4.2-5.4-7.3-7.1c-2.5-1.4-5.1-2.2-8-2.1C269.8,2.3,268.1,2.3,266.5,2.3z
			 M251.1,36.5c0-1,0-1.8,0-2.6c0-0.7-0.2-1.2-0.6-1.7c-0.8-0.9-1.4-2-1.9-3.1c-0.5-1.1-1-2.3-1.2-3.5c-0.1-0.3-0.2-0.6-0.6-0.6
			c-0.4,0-0.9,0-1.3,0c-0.4,0-0.6,0.2-0.5,0.7c0,0.3,0.1,0.6,0.1,0.9c0.7,3.3,2.2,6.1,4.5,8.6C250.1,35.6,250.5,36.1,251.1,36.5z"/>
		<path fill="#48C2D2" d="M254.9,17.5c0.2-0.3,0.2-0.6,0.4-0.9c0.2-0.5,0.6-1,0.9-1.4c0.4-0.4,0.5-0.9,0.2-1.4
			c-0.3-0.5-0.7-0.5-1.2-0.5c-0.1,0-0.1,0-0.2,0c0.1-0.1,0.1-0.2,0.2-0.2c2.2-2.2,4.9-3.5,8-3.6c2.2-0.1,4.3,0,6.5,0
			c0.9,0,1.5-0.3,1.9-1.1c0,0.8,0.5,1.2,1.1,1.6c-0.1,0.6,0.1,1,0.5,1.4c1.2,1.1,2.4,2.3,3.5,3.4c0.1,0.1,0.3,0.3,0.3,0.5
			c0,0.6,0.4,1.2,1,1.3c0.6,0.1,1.1-0.1,1.4-0.6c0.3-0.6,0.1-1.2-0.4-1.6c-0.2-0.1-0.3-0.3-0.4-0.4c-0.3-0.5,0-1.2,0.5-1.4
			c0.4-0.2,1.1,0,1.2,0.5c0.1,0.6,0.4,0.5,0.8,0.5c0.2,0,0.5,0,0.7,0c0.9,1.3,1.5,2.8,1.9,4.3c0.4,1.6,0.5,3.2,0.4,4.8
			c-0.2,2.6-0.9,5.1-2.4,7.2c-0.8,1.2-1.7,2.2-2.9,3.1c-1.6,1.2-3.4,2-5.5,2.3c-0.4,0.1-0.8,0.1-1.2,0.1c-3.3,0-6.6,0-9.8,0
			c-0.3,0-0.5,0.1-0.7,0.3c-1.7,1.8-3.4,3.6-5.2,5.4c-2,2-4.3,3.6-6.9,4.6c-0.4,0.2-0.4,0.2-0.8,0.1c0.5-0.5,0.9-1,1.4-1.5
			c0.5-0.5,0.9-1.1,1.2-1.7c0.1-0.1,0.1-0.1,0.2-0.2c0.1,0.1,0.1,0,0.2-0.1c1.3-1.2,2.5-2.5,3.6-3.9c0.2-0.3,0.6-0.5,0.6-0.9
			c0,0.2,0.1,0.2,0.2,0.1c1.5-1.6,3.1-3.2,4.6-4.8c0.2-0.1,0.4-0.1,0.7-0.1c1.4,0,2.8,0,4.3,0c1.4,0.1,2.7,0,4.1,0.1
			c0.2,0,0.4-0.1,0.6-0.2c0.5-0.3,0.7-0.7,0.6-1.1c-0.1-0.5-0.5-0.8-1.1-0.8c-0.3,0-0.7,0-1,0c-0.6,0.1-1,0-1.5-0.5
			c-2.1-2.1-4.2-4.1-6.3-6.1c-0.2-0.2-0.3-0.3-0.4-0.6c0.7-1.3,0.4-2.5-0.8-3.4c-0.9-0.7-2.2-0.7-3.3,0.2c0,0-0.1,0.1-0.1,0.1
			c0,0,0,0,0,0c-0.2,0-0.3-0.1-0.4-0.2C255.5,19.4,254.9,18.6,254.9,17.5z M269.9,22.3c0-1.5-1.1-2.7-2.6-2.7
			c-1.4,0-2.6,1.2-2.6,2.6c0,1.5,1.1,2.6,2.6,2.6C268.7,24.9,269.9,23.7,269.9,22.3z M273.9,22.2c0,1.6,1,2.6,2.6,2.6
			c1.5,0,2.6-1.1,2.6-2.7c0-1.2-1.1-2.5-2.6-2.5C275,19.7,273.9,20.8,273.9,22.2z"/>
		<path fill="#EC5257" d="M266.5,2.3c1.6,0,3.2,0,4.8,0c2.9,0,5.5,0.8,8,2.1c3.1,1.7,5.5,4,7.3,7.1c1.2,2.1,2.1,4.4,2.3,6.9
			c0.1,0.8-0.1,1-0.9,1c-1.3,0-1.4,0.2-1.7-1.4c-1.3-5.9-4.8-10-10.4-12.2c-1.6-0.6-3.4-0.9-5.1-0.9c-2.6,0-5.1,0-7.7,0
			c-2.9,0-5.6,0.8-8,2.3c-3,1.8-5.1,4.4-6.4,7.6c-0.9,2.2-1.3,4.4-1.2,6.8c0,0.5-0.2,1-0.7,1.2c-0.9,0.4-1.8-0.1-1.9-1.1
			c-0.1-4.1,0.8-7.8,3.1-11.2c1.4-2,3-3.8,5.1-5.2c2.7-1.8,5.6-3,8.8-3C263.4,2.3,264.9,2.3,266.5,2.3
			C266.5,2.3,266.5,2.3,266.5,2.3z"/>
		<path fill="#48C2D2" d="M288.9,22.9c0.1,2-0.2,3.9-0.9,5.8c-1.2,3.4-3.2,6.2-6,8.4c-2.9,2.3-6.2,3.5-9.9,3.5c-2.2,0-4.5,0-6.7,0
			c-0.6,0-1.2-0.1-1.9-0.2c-0.1-0.2-0.3-0.2-0.4-0.3c-0.6-0.4-1.1-0.8-1-1.6c0.3-0.6,0.8-0.8,1.4-0.8c2.7,0,5.3,0,8,0
			c4.2,0,7.7-1.5,10.5-4.5c2.2-2.2,3.5-5,4.1-8c0.1-0.8,0.3-1.6,0.3-2.3c0-0.1,0-0.2,0.1-0.3c0.1,0.5,0.4,0.3,0.6,0.2
			c0.5-0.4,0.9-0.3,1.4,0C288.7,22.8,288.8,22.9,288.9,22.9z"/>
		<path fill="#0972A4" d="M260.7,23.6c0.1,0.2,0.2,0.4,0.4,0.6c2.1,2,4.2,4,6.3,6.1c0.4,0.4,0.9,0.6,1.5,0.5c0.3,0,0.7,0,1,0
			c0.5,0,1,0.3,1.1,0.8c0.1,0.4-0.1,0.9-0.6,1.1c-0.2,0.1-0.4,0.2-0.6,0.2c-1.4,0-2.7,0.1-4.1-0.1c-0.1-0.8-0.3-1.5-1.1-1.9
			c-0.1,0-0.1,0-0.2-0.1c0,0,0,0-0.1,0c-0.2-0.1-0.4-0.1-0.5-0.1c-1,0-2,0-3,0c-0.7,0-1.3-0.2-2-0.5c-1.1-0.5-1.9-1.3-2.7-2.1
			c-0.6-0.6-0.9-1.4-1.2-2.1c-1-2.3-1.2-4.6-0.5-7c0.1-0.5,0.3-1,0.5-1.5c0,1.1,0.6,1.9,1.2,2.7c0.1,0.1,0.2,0.2,0.4,0.2
			c0,0-0.1,0.1-0.1,0.1c-1.1,1.2-0.8,3.1,0.6,4C258.1,25.2,259.8,25,260.7,23.6z"/>
		<path fill="#F0F4EA" d="M271.7,8.5c-0.4,0.8-1,1.1-1.9,1.1c-2.2,0-4.3-0.1-6.5,0c-3.1,0.1-5.8,1.3-8,3.6c-0.1,0.1-0.1,0.1-0.2,0.2
			c-1.3,1.1-2,2.7-2.6,4.2c-0.1,0.2-0.1,0.3-0.3,0.3c-0.7,0-1.4,0-2.2,0c0.3-1.4,0.9-2.7,1.5-3.9c0.1-0.1,0.2-0.2,0.2-0.3
			c1-1.7,2.3-3.1,4-4.1c2.3-1.4,4.7-2.4,7.4-2.4c2.4,0,4.7,0,7.1,0c0.1,0,0.2,0,0.3,0C271.4,7.1,271.8,7.6,271.7,8.5z"/>
		<path fill="#F0F4EA" d="M282,13.6c-0.2,0-0.5,0-0.7,0c-0.4,0-0.7,0.1-0.8-0.5c-0.1-0.4-0.8-0.7-1.2-0.5c-0.5,0.2-0.7,0.9-0.5,1.4
			c0.1,0.2,0.2,0.3,0.4,0.4c0.5,0.4,0.7,1,0.4,1.6c-0.3,0.5-0.8,0.8-1.4,0.6c-0.5-0.1-1-0.7-1-1.3c0-0.2-0.1-0.4-0.3-0.5
			c-1.2-1.2-2.3-2.3-3.5-3.4c-0.4-0.4-0.7-0.8-0.5-1.4c0.9,0,1.5-0.6,1.6-1.6c0-0.7,0.1-0.8,0.8-0.5c2.7,1.1,4.9,2.9,6.6,5.3
			C281.8,13.4,281.9,13.5,282,13.6z"/>
		<path fill="#48C2D2" d="M251.1,36.5c-0.6-0.5-1.1-1-1.5-1.4c-2.2-2.5-3.8-5.3-4.5-8.6c-0.1-0.3-0.1-0.6-0.1-0.9
			c-0.1-0.4,0.1-0.6,0.5-0.7c0.4,0,0.9,0,1.3,0c0.4,0,0.6,0.3,0.6,0.6c0.2,1.2,0.7,2.4,1.2,3.5c0.5,1.1,1.1,2.2,1.9,3.1
			c0.4,0.5,0.7,1,0.6,1.7C251.1,34.8,251.1,35.6,251.1,36.5z"/>
		<path fill="#003046" d="M256.2,28.1c0.8,0.8,1.6,1.6,2.7,2.1c0.6,0.3,1.3,0.5,2,0.5c1,0,2,0,3,0c0.2,0,0.4,0,0.5,0.1
			c-0.8-0.1-1.5,0.2-2.3,0c-0.1,0-0.2,0-0.2,0c-0.3,0.2-0.6,0.2-1,0.1c-0.1,0-0.3,0-0.4,0.1c-0.1,0.2,0.1,0.2,0.2,0.3
			c0.5,0.4,0.5,0.6,0.1,1.1c-0.1,0.1-0.1,0.3,0,0.4c-1.5,1.6-3.1,3.2-4.6,4.8c-0.1,0.1-0.2,0.1-0.2-0.1c0-2.1,0-4.3,0-6.4
			c0-0.3,0-0.6-0.2-0.9c0.2-0.2,0.2-0.5,0.2-0.8c0.1-0.2,0-0.5,0.2-0.7C256.4,28.6,256,28.3,256.2,28.1z"/>
		<path fill="#0972A4" d="M253.6,33.6c0.2-1.2-0.4-2-1.1-2.9c-2.3-2.7-2.9-5.8-2.9-9.2c0-0.6,0.3-1,0.7-1.3c0.5-0.3,1.1-0.2,1.5,0.3
			c0,0.1,0,0.3,0.1,0.4c0,0.1,0,0.3,0,0.4c-0.1,0.4-0.1,0.8,0,1.2c0,2.3,0.7,4.4,2,6.3c0,0,0.1,0.1,0.1,0.1c0,0,0,0.1,0.1,0.1
			c0,0.1,0.1,0.2,0.2,0.3c0.1,0.2,0.2,0.3,0.4,0.5c-0.8,0.3-1,0.7-1,1.5C253.6,32,253.6,32.8,253.6,33.6z"/>
		<path fill="#F0F4EA" d="M253.6,33.6c0-0.8,0-1.6,0-2.4c0-0.8,0.3-1.2,1-1.5c0.4,0,0.8,0.1,1.1,0.4c0,0,0.1,0.1,0.1,0.1
			c0,0,0,0.1,0,0.1c0.1,0.3,0.2,0.6,0.2,0.9c0,2.1,0,4.3,0,6.4c-0.1,0.4-0.4,0.6-0.6,0.9c-1.2,1.3-2.4,2.6-3.6,3.9
			c-0.1,0-0.1,0.1-0.2,0.1c0.6-1.2,1.2-2.5,1.5-3.8C253.5,37,253.6,35.3,253.6,33.6z"/>
		<path fill="#003046" d="M262.2,38.5c0,0.8,0.4,1.2,1,1.6c0.1,0.1,0.3,0.1,0.4,0.3c-1.1-0.1-2,0.3-3,0.8c-0.7,0.4-1.5,0.8-2.2,1
			l0,0c0.4-0.6,1-1.1,1.5-1.6c0.6-0.6,1.2-1.3,1.9-1.8C261.9,38.6,262,38.5,262.2,38.5z"/>
		<path fill="#F0F4EA" d="M288.9,22.9c-0.2,0.1-0.3-0.1-0.4-0.1c-0.4-0.3-0.9-0.4-1.4,0c-0.2,0.2-0.5,0.3-0.6-0.2
			c0.2-0.7,0.7-1.1,1.4-1C288.6,21.7,289,22.1,288.9,22.9z"/>
		<path fill="#003046" d="M251.7,13.6c0,0.1-0.1,0.3-0.2,0.3c0-0.1,0-0.1-0.1-0.2c-0.1-0.1-0.2-0.2,0-0.3
			C251.6,13.4,251.6,13.5,251.7,13.6z"/>
		<path fill="#003046" d="M251.8,22.4c-0.1-0.4-0.1-0.8,0-1.2C251.8,21.6,251.8,22,251.8,22.4z"/>
		<path fill="#003046" d="M254.2,29.2c-0.1-0.1-0.2-0.2-0.2-0.3C254.2,28.9,254.2,29,254.2,29.2z"/>
		<path fill="#003046" d="M251.8,20.8c-0.1-0.1-0.1-0.3-0.1-0.4C251.9,20.6,251.9,20.7,251.8,20.8z"/>
		<path fill="#003046" d="M255.8,30.2c0,0-0.1-0.1-0.1-0.1C255.7,30.1,255.7,30.2,255.8,30.2z"/>
		<path fill="#003046" d="M253.9,28.8c0,0-0.1-0.1-0.1-0.1C253.9,28.8,253.9,28.8,253.9,28.8z"/>
		<path fill="#003046" d="M258.4,42.1C258.4,42.1,258.4,42.1,258.4,42.1C258.4,42.1,258.4,42.1,258.4,42.1
			C258.4,42.1,258.4,42.1,258.4,42.1C258.4,42.1,258.4,42.1,258.4,42.1z"/>
		<path fill="#04243B" d="M260.7,23.6c-0.9,1.4-2.6,1.6-3.6,0.9c-1.4-0.9-1.7-2.7-0.6-4c0,0,0.1-0.1,0.1-0.1c0,0,0,0,0,0
			c0,0,0.1-0.1,0.1-0.1c1-0.8,2.4-0.9,3.3-0.2C261.1,21.1,261.3,22.3,260.7,23.6z"/>
		<path fill="#04243B" d="M269.9,22.3c0,1.3-1.2,2.5-2.6,2.5c-1.5,0-2.6-1.1-2.6-2.6c0-1.4,1.2-2.6,2.6-2.6
			C268.8,19.7,269.9,20.9,269.9,22.3z"/>
		<path fill="#04243B" d="M273.9,22.2c0-1.5,1.1-2.6,2.5-2.6c1.5,0,2.6,1.2,2.6,2.5c0,1.5-1.1,2.7-2.6,2.7
			C274.9,24.8,273.9,23.8,273.9,22.2z"/>
		<path fill="#04243B" d="M260.7,32.8c-0.1-0.1-0.1-0.3,0-0.4c0.4-0.5,0.3-0.6-0.1-1.1c-0.1-0.1-0.3-0.2-0.2-0.3
			c0.1-0.1,0.2-0.2,0.4-0.1c0.3,0.1,0.7,0.1,1-0.1c0.1,0,0.2,0,0.2,0c0.8,0.2,1.5-0.1,2.3,0c0,0,0,0,0.1,0c0,0.1,0.1,0.2,0.2,0.1
			c0.8,0.4,1,1.1,1.1,1.9c-1.4,0-2.8,0-4.3,0C261.2,32.8,260.9,32.8,260.7,32.8z M262.8,32.6C262.8,32.6,262.7,32.6,262.8,32.6
			c-0.5,0-1,0-1.6,0c0,0,0,0,0,0C261.7,32.6,262.2,32.6,262.8,32.6z"/>
		<path fill="#0972A4" d="M256.7,20.3C256.6,20.3,256.6,20.4,256.7,20.3C256.6,20.4,256.6,20.3,256.7,20.3z"/>
		<path fill="#003046" d="M264.5,30.9c-0.1,0.2-0.2,0.1-0.2-0.1C264.4,30.8,264.5,30.9,264.5,30.9z"/>
		<path fill="#003046" d="M262.8,32.6c-0.5,0-1,0-1.6,0c0,0,0,0,0,0C261.7,32.6,262.2,32.6,262.8,32.6
			C262.7,32.6,262.8,32.6,262.8,32.6z"/>
	</g>
	<path fill="#04243B" d="M38.8,3.4c0.3,0,0.5,0.1,0.7,0.3c0.2,0.2,0.3,0.4,0.3,0.7V28c0,0.3-0.1,0.5-0.3,0.7
		c-0.2,0.2-0.4,0.3-0.7,0.3h-6.5c-0.3,0-0.5-0.1-0.7-0.3c-0.2-0.2-0.3-0.4-0.3-0.7V15.2l-7.1,13.2c-0.1,0.2-0.2,0.3-0.4,0.4
		C23.6,29,23.4,29,23.3,29h-3.1c-0.2,0-0.3-0.1-0.5-0.2c-0.2-0.1-0.3-0.2-0.4-0.4l-7.1-13.2V28c0,0.3-0.1,0.5-0.3,0.7
		c-0.2,0.2-0.4,0.3-0.7,0.3H4.7c-0.3,0-0.5-0.1-0.7-0.3S3.7,28.3,3.7,28V4.3c0-0.3,0.1-0.5,0.3-0.7s0.4-0.3,0.7-0.3h7.7
		c0.1,0,0.3,0,0.5,0.1c0.2,0.1,0.3,0.2,0.4,0.3l8.6,13.9l8.5-13.9c0.1-0.1,0.2-0.2,0.4-0.3c0.2-0.1,0.3-0.1,0.5-0.1H38.8 M38.8,0.4
		h-7.7c-0.7,0-1.3,0.2-2,0.5c-0.6,0.3-1.1,0.8-1.4,1.3c0,0,0,0.1-0.1,0.1L21.7,12l-6-9.7c-0.4-0.6-0.9-1.1-1.6-1.5
		c-0.6-0.3-1.2-0.5-1.9-0.5H4.7c-1.1,0-2.1,0.4-2.8,1.2C1.1,2.3,0.7,3.3,0.7,4.3V28c0,1.1,0.4,2.1,1.2,2.8C2.6,31.6,3.6,32,4.7,32
		h6.5c1.1,0,2.1-0.4,2.8-1.2c0.8-0.8,1.2-1.8,1.2-2.8v-0.8l1.4,2.7c0,0,0,0,0,0.1c0.3,0.6,0.8,1.1,1.4,1.5c0.6,0.4,1.3,0.6,2.1,0.6
		h3.1c0.7,0,1.4-0.2,2.1-0.6c0.6-0.4,1.1-0.9,1.4-1.5c0,0,0,0,0-0.1l1.5-2.7V28c0,1.1,0.4,2.1,1.2,2.8c0.8,0.8,1.8,1.2,2.8,1.2h6.5
		c1.1,0,2.1-0.4,2.8-1.2c0.8-0.8,1.2-1.8,1.2-2.8V4.3c0-1.1-0.4-2.1-1.2-2.8C40.9,0.8,39.9,0.4,38.8,0.4L38.8,0.4z"/>
	<path fill="#04243B" d="M50.4,9.7c2.6,0,4.8,0.9,6.4,2.7c1.6,1.8,2.4,4.1,2.4,7v1.4c0,0.3-0.1,0.5-0.3,0.7
		c-0.2,0.2-0.4,0.3-0.7,0.3h-9.3c0.2,0.4,0.4,0.7,0.6,0.9c0.7,0.7,1.8,1,3.4,1c0.8,0,1.5-0.1,2.3-0.3c0.4-0.1,0.7-0.2,0.9-0.3
		c0.2-0.1,0.4-0.1,0.5-0.2c0.1-0.1,0.2-0.1,0.4-0.1s0.2,0,0.4,0.1c0.3,0.1,0.4,0.3,0.5,0.5l1.2,3.1l-0.4,1.2
		c-0.4,0.3-0.8,0.5-1.4,0.7c-0.5,0.2-1.1,0.4-1.7,0.5c-0.6,0.1-1.2,0.2-1.8,0.3c-0.6,0.1-1.3,0.1-1.9,0.1c-3.2,0-5.8-0.9-7.7-2.7
		c-1.9-1.8-2.9-4.3-2.9-7.5c0-2.8,0.9-5,2.6-6.8C45.6,10.7,47.8,9.7,50.4,9.7 M48.6,17.5H52c-0.1-0.8-0.3-1.4-0.6-1.8
		c-0.3-0.4-0.6-0.6-1.1-0.6c-0.6,0-1,0.3-1.3,0.9C48.8,16.4,48.7,16.9,48.6,17.5 M50.4,6.7c-3.5,0-6.4,1.2-8.7,3.6
		c-2.3,2.3-3.4,5.3-3.4,8.9c0,4,1.3,7.3,3.8,9.7c2.5,2.3,5.8,3.5,9.7,3.5c0.7,0,1.5,0,2.3-0.1c0.8-0.1,1.5-0.2,2.2-0.4
		c0.7-0.2,1.4-0.4,2-0.6c0.7-0.3,1.4-0.6,1.9-1c0.6-0.4,1-0.9,1.2-1.5l0.4-1.2c0.2-0.7,0.2-1.4-0.1-2L61,23.7c0,0,0,0,0,0
		c0.7-0.8,1.1-1.7,1.1-2.7v-1.4c0-3.6-1-6.6-3.1-9C56.9,8,53.9,6.7,50.4,6.7L50.4,6.7z"/>
	<path fill="#04243B" d="M68.7,9.7c0.5,0,1.1,0,1.6,0.1c0.5,0.1,1,0.2,1.5,0.3c0.5,0.1,0.9,0.2,1.4,0.4c0.4,0.1,0.8,0.3,1.1,0.4
		c0.2,0,0.3,0.2,0.4,0.4c0.1,0.2,0.2,0.4,0.2,0.6v3.9c0,0.4-0.2,0.7-0.5,0.9c-0.1,0.1-0.3,0.1-0.4,0.1c-0.2,0-0.4-0.1-0.6-0.2
		c-0.1,0-0.3-0.1-0.6-0.3c-0.3-0.2-0.7-0.4-1.2-0.6c-1-0.5-1.9-0.7-2.7-0.7c-0.3,0-0.6,0.1-0.8,0.2s-0.3,0.3-0.3,0.4
		c0,0.3,0.3,0.6,0.9,0.9c0.6,0.3,1.5,0.7,2.9,1.2c1.6,0.6,2.8,1.3,3.7,2.3c0.9,0.9,1.3,2.1,1.3,3.6c0,2-0.7,3.5-2.1,4.5
		c-1.4,1-3.3,1.6-5.7,1.6c-1.3,0-2.6-0.1-3.7-0.3c-1.2-0.2-2.2-0.4-3.2-0.8c-0.2,0-0.3-0.1-0.4-0.3c-0.1-0.2-0.2-0.3-0.2-0.5l-0.4-4
		c0-0.4,0.1-0.7,0.3-0.9c0.2-0.1,0.3-0.2,0.5-0.2c0.1,0,0.3,0,0.5,0.1c0.2,0.1,0.5,0.2,0.9,0.4c0.4,0.2,0.9,0.4,1.6,0.6
		c1.2,0.5,2.5,0.7,3.8,0.7c0.4,0,0.7,0,1-0.1c0.2-0.1,0.4-0.2,0.4-0.4c0-0.3-0.3-0.5-0.9-0.8c-0.6-0.2-1.4-0.5-2.4-0.9v0
		c-0.8-0.3-1.9-0.8-3.2-1.6c-1.5-0.9-2.2-2.4-2.2-4.5c0-1,0.2-2,0.6-2.7c0.4-0.8,1-1.5,1.8-2c0.7-0.5,1.5-0.9,2.5-1.1
		C66.6,9.9,67.6,9.7,68.7,9.7 M68.7,6.7c-1.4,0-2.7,0.2-3.8,0.5c-1.3,0.3-2.4,0.9-3.4,1.6c-1.2,0.8-2.1,1.9-2.7,3.2
		c-0.6,1.2-0.8,2.5-0.8,4c0,1.9,0.5,3.3,1.1,4.4c-1,0.9-1.4,2.1-1.3,3.4l0.4,4c0,0,0,0,0,0.1c0.1,0.8,0.4,1.5,0.9,2.1
		c0.5,0.6,1.1,1,1.8,1.2c1.1,0.4,2.4,0.7,3.7,0.9c1.3,0.2,2.7,0.3,4.2,0.3c3.1,0,5.6-0.7,7.5-2.2c2.1-1.6,3.2-4,3.2-6.9
		c0-2.2-0.7-4.1-2.1-5.6c0,0,0,0,0,0c0.3-0.6,0.5-1.3,0.5-2v-3.9c0-0.7-0.2-1.4-0.5-2c-0.4-0.8-1.1-1.4-1.9-1.7
		C75,8,74.6,7.8,74.1,7.7c-0.5-0.2-1.1-0.3-1.7-0.5c-0.6-0.1-1.2-0.2-1.8-0.3C70,6.8,69.4,6.7,68.7,6.7L68.7,6.7z"/>
	<path fill="#04243B" d="M86,9.7c0.5,0,1.1,0,1.6,0.1c0.5,0.1,1,0.2,1.5,0.3c0.5,0.1,0.9,0.2,1.4,0.4c0.4,0.1,0.8,0.3,1.1,0.4
		c0.2,0,0.3,0.2,0.4,0.4c0.1,0.2,0.2,0.4,0.2,0.6v3.9c0,0.4-0.2,0.7-0.5,0.9c-0.1,0.1-0.3,0.1-0.4,0.1c-0.2,0-0.4-0.1-0.6-0.2
		c-0.1,0-0.3-0.1-0.6-0.3c-0.3-0.2-0.7-0.4-1.2-0.6c-1-0.5-1.9-0.7-2.7-0.7c-0.3,0-0.6,0.1-0.8,0.2s-0.3,0.3-0.3,0.4
		c0,0.3,0.3,0.6,0.9,0.9c0.6,0.3,1.5,0.7,2.9,1.2c1.6,0.6,2.8,1.3,3.7,2.3c0.9,0.9,1.3,2.1,1.3,3.6c0,2-0.7,3.5-2.1,4.5
		c-1.4,1-3.3,1.6-5.7,1.6c-1.3,0-2.6-0.1-3.7-0.3C81.1,29,80,28.7,79,28.4c-0.2,0-0.3-0.1-0.4-0.3c-0.1-0.2-0.2-0.3-0.2-0.5l-0.4-4
		c0-0.4,0.1-0.7,0.3-0.9c0.2-0.1,0.3-0.2,0.5-0.2c0.1,0,0.3,0,0.5,0.1c0.2,0.1,0.5,0.2,0.9,0.4c0.4,0.2,0.9,0.4,1.6,0.6
		c1.2,0.5,2.5,0.7,3.8,0.7c0.4,0,0.7,0,1-0.1c0.2-0.1,0.4-0.2,0.4-0.4c0-0.3-0.3-0.5-0.9-0.8c-0.6-0.2-1.4-0.5-2.4-0.9v0
		c-0.8-0.3-1.9-0.8-3.2-1.6c-1.5-0.9-2.2-2.4-2.2-4.5c0-1,0.2-2,0.6-2.7c0.4-0.8,1-1.5,1.8-2c0.7-0.5,1.5-0.9,2.5-1.1
		C83.9,9.9,84.9,9.7,86,9.7 M86,6.7c-1.4,0-2.7,0.2-3.8,0.5c-1.3,0.3-2.4,0.9-3.4,1.6c-1.2,0.8-2.1,1.9-2.7,3.2
		c-0.6,1.2-0.8,2.5-0.8,4c0,1.9,0.5,3.3,1.1,4.4c-1,0.9-1.4,2.1-1.3,3.4l0.4,4c0,0,0,0,0,0.1c0.1,0.8,0.4,1.5,0.9,2.1
		c0.5,0.6,1.1,1,1.8,1.2c1.1,0.4,2.4,0.7,3.7,0.9c1.3,0.2,2.7,0.3,4.2,0.3c3.1,0,5.6-0.7,7.5-2.2c2.1-1.6,3.2-4,3.2-6.9
		c0-2.2-0.7-4.1-2.1-5.6c0,0,0,0,0,0c0.3-0.6,0.5-1.3,0.5-2v-3.9c0-0.7-0.2-1.4-0.5-2c-0.4-0.8-1.1-1.4-1.9-1.7
		c-0.3-0.1-0.7-0.3-1.2-0.4c-0.5-0.2-1.1-0.3-1.7-0.5C89.2,7.1,88.6,7,88,6.9C87.3,6.8,86.7,6.7,86,6.7L86,6.7z"/>
	<path fill="#04243B" d="M104.4,9.7c2.6,0,4.8,0.9,6.4,2.7c1.6,1.8,2.4,4.1,2.4,7v1.4c0,0.3-0.1,0.5-0.3,0.7
		c-0.2,0.2-0.4,0.3-0.7,0.3h-9.3c0.2,0.4,0.4,0.7,0.6,0.9c0.7,0.7,1.8,1,3.4,1c0.8,0,1.5-0.1,2.3-0.3c0.4-0.1,0.7-0.2,0.9-0.3
		c0.2-0.1,0.4-0.1,0.5-0.2c0.1-0.1,0.2-0.1,0.4-0.1s0.2,0,0.4,0.1c0.3,0.1,0.4,0.3,0.5,0.5l1.2,3.1l-0.4,1.2
		c-0.4,0.3-0.8,0.5-1.4,0.7s-1.1,0.4-1.7,0.5c-0.6,0.1-1.2,0.2-1.8,0.3c-0.6,0.1-1.3,0.1-1.9,0.1c-3.2,0-5.8-0.9-7.7-2.7
		c-1.9-1.8-2.9-4.3-2.9-7.5c0-2.8,0.9-5,2.6-6.8C99.5,10.7,101.7,9.7,104.4,9.7 M102.6,17.5h3.4c-0.1-0.8-0.3-1.4-0.6-1.8
		c-0.3-0.4-0.6-0.6-1.1-0.6c-0.6,0-1,0.3-1.3,0.9C102.8,16.4,102.7,16.9,102.6,17.5 M104.4,6.7c-3.5,0-6.4,1.2-8.7,3.6
		c-2.3,2.3-3.4,5.3-3.4,8.9c0,4,1.3,7.3,3.8,9.7c2.5,2.3,5.8,3.5,9.7,3.5c0.7,0,1.5,0,2.3-0.1c0.8-0.1,1.5-0.2,2.2-0.4
		c0.7-0.2,1.4-0.4,2-0.6c0.7-0.3,1.4-0.6,1.9-1c0.6-0.4,1-0.9,1.2-1.5l0.4-1.2c0.2-0.7,0.2-1.4-0.1-2l-0.7-1.8c0,0,0,0,0,0
		c0.7-0.8,1.1-1.7,1.1-2.7v-1.4c0-3.6-1-6.6-3.1-9C110.8,8,107.8,6.7,104.4,6.7L104.4,6.7z"/>
	<path fill="#04243B" d="M127.6,9.8c2.2,0,3.8,0.6,4.8,1.8s1.6,2.9,1.6,5.2V28c0,0.3-0.1,0.5-0.3,0.7c-0.2,0.2-0.4,0.3-0.7,0.3h-5.6
		c-0.3,0-0.5-0.1-0.7-0.3c-0.2-0.2-0.3-0.4-0.3-0.7V17.9c0-0.6-0.1-1.1-0.3-1.5c-0.2-0.4-0.5-0.6-0.8-0.6s-0.7,0-1.1,0.1
		c-0.3,0.1-0.7,0.2-1.1,0.4h0c-0.2,0.1-0.4,0.2-0.6,0.3c-0.2,0.1-0.3,0.2-0.5,0.2V28c0,0.3-0.1,0.5-0.3,0.7
		c-0.2,0.2-0.4,0.3-0.7,0.3h-5.6c-0.3,0-0.5-0.1-0.7-0.3c-0.2-0.2-0.3-0.4-0.3-0.7V11.2c0-0.3,0.1-0.5,0.3-0.7
		c0.2-0.2,0.4-0.3,0.7-0.3h4c0.1,0,0.3,0,0.4,0.1c0.2,0.1,0.3,0.2,0.4,0.3l0.8,1.2c0.9-0.7,1.9-1.2,3-1.5
		C125.2,10,126.4,9.8,127.6,9.8 M127.6,6.8c-1.5,0-3,0.2-4.4,0.7c-0.4,0.1-0.9,0.3-1.3,0.5c-0.2-0.1-0.4-0.2-0.6-0.3
		c-0.6-0.3-1.2-0.5-1.8-0.5h-4c-1.1,0-2,0.4-2.8,1.2c-0.7,0.7-1.2,1.7-1.2,2.8V28c0,1.1,0.4,2.1,1.2,2.8c0.7,0.7,1.7,1.1,2.8,1.1
		h5.6c1,0,2-0.4,2.7-1.1c0.1-0.1,0.3-0.3,0.4-0.4c0.1,0.2,0.3,0.3,0.4,0.4c0.7,0.7,1.7,1.1,2.7,1.1h5.6c1,0,2-0.4,2.7-1.1
		c0.8-0.7,1.2-1.8,1.2-2.9V16.8c0-3-0.8-5.5-2.3-7.2C133,7.7,130.6,6.8,127.6,6.8L127.6,6.8z"/>
	<path fill="#04243B" d="M143.5,9.4c1.1,0,2.2,0.2,3.3,0.5c0,0,0.2,0.1,0.4,0.2c0.3,0.1,0.6,0.3,1,0.5c0.4,0.2,0.7,0.5,1,0.7
		l0.6-1.2c0.1-0.1,0.2-0.3,0.4-0.4c0.2-0.1,0.4-0.2,0.5-0.2h3.4c0.3,0,0.5,0.1,0.7,0.3c0.2,0.2,0.3,0.4,0.3,0.7v15.9
		c0,1.2-0.2,2.3-0.7,3.2c-0.5,0.9-1.1,1.7-2,2.3c-0.9,0.6-1.9,1.1-3.2,1.4c-1.2,0.3-2.6,0.5-4.2,0.5c-0.9,0-1.8-0.1-2.7-0.3
		c-0.9-0.2-1.7-0.4-2.4-0.6c-0.8-0.2-1.4-0.3-1.9-0.5c-0.5-0.2-0.8-0.3-1-0.4c-0.1-0.1-0.2-0.2-0.3-0.4c-0.1-0.2-0.2-0.3-0.2-0.4
		l-0.2-3.3c0-0.2,0-0.4,0.1-0.5c0.1-0.2,0.2-0.3,0.3-0.4c0.1-0.1,0.3-0.1,0.5-0.1c0.2,0,0.4,0,0.6,0.1c0.2,0.1,0.5,0.2,0.9,0.3
		c0.4,0.2,0.9,0.4,1.6,0.6c0.6,0.2,1.3,0.4,1.9,0.5s1.3,0.2,2,0.2c1.2,0,2.1-0.2,2.7-0.5c0.6-0.3,1-0.8,1-1.4v-0.2
		c-0.7,0.4-1.4,0.7-2.1,0.9c-0.7,0.2-1.5,0.3-2.3,0.3c-2.3,0-4.2-0.9-5.7-2.6c-0.8-0.9-1.3-1.8-1.7-2.8c-0.3-1-0.5-2.2-0.5-3.4
		c0-2.8,0.7-5,2.2-6.8C139.1,10.3,141.1,9.4,143.5,9.4 M145.3,22.5c0.3,0,0.8-0.2,1.4-0.6c0.2-0.1,0.4-0.2,0.6-0.4
		c0.2-0.1,0.3-0.3,0.5-0.4v-5c0,0-0.1,0.1-0.1,0.1c-0.1,0-0.3-0.1-0.6-0.3c-0.6-0.4-1.2-0.6-1.7-0.6c-1,0-1.7,0.3-2.1,0.9
		c-0.4,0.6-0.6,1.5-0.6,2.8c0,1.1,0.2,1.9,0.7,2.6C143.9,22.2,144.5,22.5,145.3,22.5 M143.5,6.4c-3.3,0-6.2,1.3-8.3,3.8
		c-1.9,2.3-2.9,5.3-2.9,8.7c0,1.6,0.2,3,0.7,4.4c0.2,0.7,0.5,1.4,0.9,2c-0.1,0.2-0.3,0.4-0.4,0.6c-0.4,0.7-0.5,1.4-0.4,2.2l0.2,3.2
		c0,0.7,0.2,1.3,0.7,1.9c0.4,0.6,0.8,1,1.3,1.3c0.4,0.2,0.9,0.4,1.6,0.7c0.6,0.2,1.2,0.4,2.1,0.5c0.8,0.2,1.6,0.4,2.4,0.6
		c1.1,0.3,2.2,0.4,3.4,0.4c1.8,0,3.5-0.2,5-0.6c1.6-0.4,3-1.1,4.2-1.9c1.2-0.9,2.2-2,2.9-3.4c0.7-1.3,1-2.9,1-4.5V10.5
		c0-1.1-0.4-2.1-1.2-2.9c-0.8-0.7-1.7-1.1-2.7-1.1h-3.4c-0.7,0-1.5,0.2-2.1,0.7c-0.1,0-0.1,0.1-0.2,0.1c-0.1-0.1-0.2-0.1-0.2-0.1
		c-0.1-0.1-0.3-0.1-0.4-0.2C146.4,6.6,145,6.4,143.5,6.4L143.5,6.4z"/>
	<path fill="#04243B" d="M176.5,3.4c0.3,0,0.5,0.1,0.7,0.3s0.3,0.4,0.3,0.7v4.8c0,0.3-0.1,0.5-0.3,0.7c-0.2,0.2-0.4,0.3-0.7,0.3h-11
		v2.6h9.4c0.3,0,0.5,0.1,0.7,0.3c0.2,0.2,0.3,0.4,0.3,0.7v4.7c0,0.3-0.1,0.5-0.3,0.7c-0.2,0.2-0.4,0.3-0.7,0.3l-9.4,0v2.8h11.9
		c0.3,0,0.5,0.1,0.7,0.3c0.2,0.2,0.3,0.4,0.3,0.7V28c0,0.3-0.1,0.5-0.3,0.7c-0.2,0.2-0.4,0.3-0.7,0.3h-20c-0.3,0-0.5-0.1-0.7-0.3
		s-0.3-0.4-0.3-0.7V4.3c0-0.3,0.1-0.5,0.3-0.7s0.4-0.3,0.7-0.3H176.5 M176.5,0.4h-19.1c-1.1,0-2.1,0.4-2.8,1.2
		c-0.8,0.8-1.2,1.8-1.2,2.8V28c0,1.1,0.4,2.1,1.2,2.8c0.8,0.8,1.8,1.2,2.8,1.2h20c1.1,0,2.1-0.4,2.9-1.2c0.7-0.8,1.1-1.7,1.1-2.8
		v-4.8c0-1-0.4-2-1.1-2.8c-0.4-0.5-1-0.8-1.5-1c0.1-0.3,0.1-0.7,0.1-1v-4.7c0-0.4-0.1-0.9-0.2-1.3c0.2-0.2,0.4-0.3,0.6-0.5
		c0.8-0.8,1.2-1.8,1.2-2.8V4.3c0-1.1-0.4-2.1-1.2-2.8C178.6,0.8,177.6,0.4,176.5,0.4L176.5,0.4z"/>
	<path fill="#04243B" d="M197.3,3.4c2.8,0,5.1,0.6,6.8,1.9c1.8,1.4,2.7,3.1,2.7,5.3c0,2.5-0.8,4.3-2.3,5.4c-0.4,0.3-0.8,0.6-1.3,0.8
		c-0.5,0.3-1,0.5-1.6,0.7c0.7,0.4,1.3,0.8,1.8,1.2c0.5,0.4,0.9,0.9,1.2,1.3l4.5,7.6c0.2,0.4,0.2,0.7,0,1c-0.2,0.3-0.5,0.5-0.9,0.5
		h-8.3c-0.2,0-0.3-0.1-0.5-0.2c-0.2-0.1-0.3-0.2-0.4-0.4l-4.2-7.8l0,0.1c-0.1-0.1-0.2-0.2-0.3-0.3s-0.2-0.2-0.3-0.3
		c-0.2-0.1-0.9-0.2-2-0.2h-3.2V28c0,0.3-0.1,0.5-0.3,0.7c-0.2,0.2-0.4,0.3-0.7,0.3h-7.3c-0.3,0-0.5-0.1-0.7-0.3s-0.3-0.4-0.3-0.7
		V4.3c0-0.3,0.1-0.5,0.3-0.7s0.4-0.3,0.7-0.3H197.3 M188.9,14.1h3.9c1.6,0,2.8-0.2,3.6-0.6c0.8-0.4,1.2-1,1.2-2
		c0-0.8-0.3-1.4-0.9-1.8c-0.6-0.4-1.5-0.6-2.7-0.6h-5.1V14.1 M197.3,0.4h-16.4c-1.1,0-2.1,0.4-2.8,1.2c-0.8,0.8-1.2,1.8-1.2,2.8V28
		c0,1.1,0.4,2.1,1.2,2.8c0.8,0.8,1.8,1.2,2.8,1.2h7.3c1.1,0,2.1-0.4,2.8-1.2c0.8-0.8,1.2-1.8,1.2-2.8V23h0.2c0.2,0,0.3,0,0.4,0
		l3.7,6.9c0,0,0,0,0,0.1c0.3,0.6,0.8,1,1.3,1.4c0.6,0.4,1.4,0.7,2.2,0.7h8.3c1.5,0,2.8-0.7,3.5-2c0.7-1.3,0.7-2.7,0-4.1l-4.5-7.6
		c-0.1-0.1-0.1-0.2-0.2-0.3c-0.1-0.1-0.1-0.1-0.2-0.2c1.4-1.3,2.9-3.5,2.9-7.4c0-3.2-1.4-5.8-4-7.7C203.6,1.2,200.7,0.4,197.3,0.4
		L197.3,0.4z"/>
	<path fill="#04243B" d="M236.5,3.4c0.3,0,0.5,0.1,0.7,0.3c0.2,0.2,0.3,0.4,0.3,0.7V28c0,0.3-0.1,0.5-0.3,0.7
		c-0.2,0.2-0.4,0.3-0.7,0.3h-7.3c-0.1,0-0.3,0-0.4-0.1c-0.2-0.1-0.3-0.2-0.4-0.3l-9.2-12.4V28c0,0.3-0.1,0.5-0.3,0.7
		c-0.2,0.2-0.4,0.3-0.7,0.3h-6.4c-0.3,0-0.5-0.1-0.7-0.3s-0.3-0.4-0.3-0.7V4.3c0-0.3,0.1-0.5,0.3-0.7s0.4-0.3,0.7-0.3h7.3
		c0.1,0,0.3,0,0.5,0.1c0.2,0.1,0.3,0.2,0.3,0.3c1,1.3,1.9,2.6,2.8,3.8c0.9,1.2,1.8,2.5,2.8,3.7c0.6,0.8,1.3,1.7,1.9,2.5
		s1.2,1.7,1.9,2.6v-12c0-0.3,0.1-0.5,0.3-0.7s0.4-0.3,0.7-0.3H236.5 M236.5,0.4h-6.4c-1.1,0-2.1,0.4-2.8,1.2
		c-0.8,0.8-1.2,1.8-1.2,2.8v2.9c-0.4-0.5-0.7-1-1.1-1.5l-2.6-3.6l-0.1-0.1c-0.3-0.5-0.8-1-1.6-1.4c-0.6-0.3-1.2-0.4-1.8-0.4h-7.3
		c-1.1,0-2.1,0.4-2.8,1.2c-0.8,0.8-1.2,1.8-1.2,2.8V28c0,1.1,0.4,2.1,1.2,2.8c0.8,0.8,1.8,1.2,2.8,1.2h6.4c1.1,0,2.1-0.4,2.8-1.2
		c0.8-0.8,1.2-1.8,1.2-2.8v-2.8l3.8,5.1c0,0,0,0,0.1,0.1c0.4,0.5,0.9,0.9,1.6,1.2c0.6,0.2,1.1,0.4,1.6,0.4h7.3
		c1.1,0,2.1-0.4,2.8-1.2c0.7-0.7,1.2-1.7,1.2-2.8V4.3c0-1.1-0.4-2.1-1.2-2.8C238.6,0.8,237.6,0.4,236.5,0.4L236.5,0.4z"/>
	<path fill="#48C2D2" d="M38.8,3.4c0.3,0,0.5,0.1,0.7,0.3c0.2,0.2,0.3,0.4,0.3,0.7V28c0,0.3-0.1,0.5-0.3,0.7
		c-0.2,0.2-0.4,0.3-0.7,0.3h-6.5c-0.3,0-0.5-0.1-0.7-0.3s-0.3-0.4-0.3-0.7V15.2l-7.1,13.2c-0.1,0.2-0.2,0.3-0.4,0.4
		C23.6,29,23.4,29,23.3,29h-3.1c-0.2,0-0.3-0.1-0.5-0.2c-0.2-0.1-0.3-0.2-0.4-0.4l-7.1-13.2V28c0,0.3-0.1,0.5-0.3,0.7
		c-0.2,0.2-0.4,0.3-0.7,0.3H4.7c-0.3,0-0.5-0.1-0.7-0.3S3.7,28.3,3.7,28V4.3c0-0.3,0.1-0.5,0.3-0.7s0.4-0.3,0.7-0.3h7.7
		c0.1,0,0.3,0,0.5,0.1c0.2,0.1,0.3,0.2,0.4,0.3l8.6,13.9l8.5-13.9c0.1-0.1,0.2-0.2,0.4-0.3c0.2-0.1,0.3-0.1,0.5-0.1H38.8z"/>
	<path fill="#F0F4EA" d="M58.6,27.8c-0.4,0.3-0.8,0.5-1.4,0.7s-1.1,0.4-1.7,0.5c-0.6,0.1-1.2,0.2-1.8,0.3c-0.6,0.1-1.3,0.1-1.9,0.1
		c-3.2,0-5.8-0.9-7.7-2.7c-1.9-1.8-2.9-4.3-2.9-7.5c0-2.8,0.9-5,2.6-6.8c1.7-1.8,3.9-2.7,6.5-2.7c2.6,0,4.8,0.9,6.4,2.7
		c1.6,1.8,2.4,4.1,2.4,7v1.4c0,0.3-0.1,0.5-0.3,0.7c-0.2,0.2-0.4,0.3-0.7,0.3h-9.3c0.2,0.4,0.4,0.7,0.6,0.9c0.7,0.7,1.8,1,3.4,1
		c0.8,0,1.5-0.1,2.3-0.3c0.4-0.1,0.7-0.2,0.9-0.3c0.2-0.1,0.4-0.1,0.5-0.2c0.2-0.1,0.5-0.1,0.7,0s0.4,0.3,0.5,0.5l1.2,3.1L58.6,27.8
		z M48.6,17.5H52c-0.1-0.8-0.3-1.4-0.6-1.8c-0.3-0.4-0.6-0.6-1.1-0.6c-0.6,0-1,0.3-1.3,0.9C48.8,16.4,48.7,16.9,48.6,17.5z"/>
	<path fill="#F0F4EA" d="M74.4,27.9c-1.4,1-3.3,1.6-5.7,1.6c-1.3,0-2.6-0.1-3.7-0.3c-1.2-0.2-2.2-0.4-3.2-0.8
		c-0.2,0-0.3-0.1-0.4-0.3c-0.1-0.2-0.2-0.3-0.2-0.5l-0.4-4c0-0.4,0.1-0.7,0.3-0.9c0.3-0.2,0.6-0.2,1-0.1c0.2,0.1,0.5,0.2,0.9,0.4
		c0.4,0.2,0.9,0.4,1.6,0.6c1.2,0.5,2.5,0.7,3.8,0.7c0.4,0,0.7,0,1-0.1c0.2-0.1,0.4-0.2,0.4-0.4c0-0.3-0.3-0.5-0.9-0.8
		c-0.6-0.2-1.4-0.5-2.4-0.9v0c-0.8-0.3-1.9-0.8-3.2-1.6c-1.5-0.9-2.2-2.4-2.2-4.5c0-1,0.2-2,0.6-2.7c0.4-0.8,1-1.5,1.8-2
		c0.7-0.5,1.5-0.9,2.5-1.1c0.9-0.2,2-0.4,3.1-0.4c0.5,0,1.1,0,1.6,0.1c0.5,0.1,1,0.2,1.5,0.3c0.5,0.1,0.9,0.2,1.4,0.4
		c0.4,0.1,0.8,0.3,1.1,0.4c0.2,0,0.3,0.2,0.4,0.4c0.1,0.2,0.2,0.4,0.2,0.6v3.9c0,0.4-0.2,0.7-0.5,0.9c-0.3,0.2-0.7,0.1-1-0.1
		c-0.1,0-0.3-0.1-0.6-0.3c-0.3-0.2-0.7-0.4-1.2-0.6c-1-0.5-1.9-0.7-2.7-0.7c-0.3,0-0.6,0.1-0.8,0.2s-0.3,0.3-0.3,0.4
		c0,0.3,0.3,0.6,0.9,0.9c0.6,0.3,1.5,0.7,2.9,1.2c1.6,0.6,2.8,1.3,3.7,2.3c0.9,0.9,1.3,2.1,1.3,3.6C76.5,25.3,75.8,26.8,74.4,27.9z"
		/>
	<path fill="#F0F4EA" d="M91.7,27.9c-1.4,1-3.3,1.6-5.7,1.6c-1.3,0-2.6-0.1-3.7-0.3C81.1,29,80,28.7,79,28.4c-0.2,0-0.3-0.1-0.4-0.3
		c-0.1-0.2-0.2-0.3-0.2-0.5l-0.4-4c0-0.4,0.1-0.7,0.3-0.9c0.3-0.2,0.6-0.2,1-0.1c0.2,0.1,0.5,0.2,0.9,0.4c0.4,0.2,0.9,0.4,1.6,0.6
		c1.2,0.5,2.5,0.7,3.8,0.7c0.4,0,0.7,0,1-0.1c0.2-0.1,0.4-0.2,0.4-0.4c0-0.3-0.3-0.5-0.9-0.8c-0.6-0.2-1.4-0.5-2.4-0.9v0
		c-0.8-0.3-1.9-0.8-3.2-1.6c-1.5-0.9-2.2-2.4-2.2-4.5c0-1,0.2-2,0.6-2.7c0.4-0.8,1-1.5,1.8-2c0.7-0.5,1.5-0.9,2.5-1.1
		c0.9-0.2,2-0.4,3.1-0.4c0.5,0,1.1,0,1.6,0.1c0.5,0.1,1,0.2,1.5,0.3c0.5,0.1,0.9,0.2,1.4,0.4c0.4,0.1,0.8,0.3,1.1,0.4
		c0.2,0,0.3,0.2,0.4,0.4c0.1,0.2,0.2,0.4,0.2,0.6v3.9c0,0.4-0.2,0.7-0.5,0.9c-0.3,0.2-0.7,0.1-1-0.1c-0.1,0-0.3-0.1-0.6-0.3
		c-0.3-0.2-0.7-0.4-1.2-0.6c-1-0.5-1.9-0.7-2.7-0.7c-0.3,0-0.6,0.1-0.8,0.2s-0.3,0.3-0.3,0.4c0,0.3,0.3,0.6,0.9,0.9
		c0.6,0.3,1.5,0.7,2.9,1.2c1.6,0.6,2.8,1.3,3.7,2.3c0.9,0.9,1.3,2.1,1.3,3.6C93.8,25.3,93.1,26.8,91.7,27.9z"/>
	<path fill="#F0F4EA" d="M112.6,27.8c-0.4,0.3-0.8,0.5-1.4,0.7s-1.1,0.4-1.7,0.5c-0.6,0.1-1.2,0.2-1.8,0.3c-0.6,0.1-1.3,0.1-1.9,0.1
		c-3.2,0-5.8-0.9-7.7-2.7c-1.9-1.8-2.9-4.3-2.9-7.5c0-2.8,0.9-5,2.6-6.8c1.7-1.8,3.9-2.7,6.5-2.7c2.6,0,4.8,0.9,6.4,2.7
		c1.6,1.8,2.4,4.1,2.4,7v1.4c0,0.3-0.1,0.5-0.3,0.7c-0.2,0.2-0.4,0.3-0.7,0.3h-9.3c0.2,0.4,0.4,0.7,0.6,0.9c0.7,0.7,1.8,1,3.4,1
		c0.8,0,1.5-0.1,2.3-0.3c0.4-0.1,0.7-0.2,0.9-0.3c0.2-0.1,0.4-0.1,0.5-0.2c0.2-0.1,0.5-0.1,0.7,0s0.4,0.3,0.5,0.5l1.2,3.1
		L112.6,27.8z M102.6,17.5h3.4c-0.1-0.8-0.3-1.4-0.6-1.8c-0.3-0.4-0.6-0.6-1.1-0.6c-0.6,0-1,0.3-1.3,0.9
		C102.8,16.4,102.7,16.9,102.6,17.5z"/>
	<path fill="#F0F4EA" d="M127.4,29c-0.3,0-0.5-0.1-0.7-0.3c-0.2-0.2-0.3-0.4-0.3-0.7V17.9c0-0.6-0.1-1.1-0.3-1.5
		c-0.2-0.4-0.5-0.6-0.8-0.6s-0.7,0-1.1,0.1c-0.3,0.1-0.7,0.2-1.1,0.4h0c-0.2,0.1-0.4,0.2-0.6,0.3c-0.2,0.1-0.3,0.2-0.5,0.2V28
		c0,0.3-0.1,0.5-0.3,0.7c-0.2,0.2-0.4,0.3-0.7,0.3h-5.6c-0.3,0-0.5-0.1-0.7-0.3c-0.2-0.2-0.3-0.4-0.3-0.7V11.2
		c0-0.3,0.1-0.5,0.3-0.7c0.2-0.2,0.4-0.3,0.7-0.3h4c0.1,0,0.3,0,0.4,0.1c0.2,0.1,0.3,0.2,0.4,0.3l0.8,1.2c0.9-0.7,1.9-1.2,3-1.5
		c1.1-0.4,2.3-0.6,3.5-0.6c2.2,0,3.8,0.6,4.8,1.8s1.6,2.9,1.6,5.2V28c0,0.3-0.1,0.5-0.3,0.7c-0.2,0.2-0.4,0.3-0.7,0.3H127.4z"/>
	<path fill="#F0F4EA" d="M154.3,29.6c-0.5,0.9-1.1,1.7-2,2.3c-0.9,0.6-1.9,1.1-3.2,1.4c-1.2,0.3-2.6,0.5-4.2,0.5
		c-0.9,0-1.8-0.1-2.7-0.3c-0.9-0.2-1.7-0.4-2.4-0.6c-0.8-0.2-1.4-0.3-1.9-0.5c-0.5-0.2-0.8-0.3-1-0.4c-0.1-0.1-0.2-0.2-0.3-0.4
		c-0.1-0.2-0.2-0.3-0.2-0.4l-0.2-3.3c0-0.2,0-0.4,0.1-0.5c0.1-0.2,0.2-0.3,0.3-0.4c0.1-0.1,0.3-0.1,0.5-0.1c0.2,0,0.4,0,0.6,0.1
		c0.2,0.1,0.5,0.2,0.9,0.3c0.4,0.2,0.9,0.4,1.6,0.6c0.6,0.2,1.3,0.4,1.9,0.5s1.3,0.2,2,0.2c1.2,0,2.1-0.2,2.7-0.5
		c0.6-0.3,1-0.8,1-1.4v-0.2c-0.7,0.4-1.4,0.7-2.1,0.9c-0.7,0.2-1.5,0.3-2.3,0.3c-2.3,0-4.2-0.9-5.7-2.6c-0.8-0.9-1.3-1.8-1.7-2.8
		c-0.3-1-0.5-2.2-0.5-3.4c0-2.8,0.7-5,2.2-6.8c1.5-1.8,3.5-2.7,6-2.7c1.1,0,2.2,0.2,3.3,0.5c0,0,0.2,0.1,0.4,0.2
		c0.3,0.1,0.6,0.3,1,0.5c0.4,0.2,0.7,0.5,1,0.7l0.6-1.2c0.1-0.1,0.2-0.3,0.4-0.4c0.2-0.1,0.4-0.2,0.5-0.2h3.4c0.3,0,0.5,0.1,0.7,0.3
		c0.2,0.2,0.3,0.4,0.3,0.7v15.9C155,27.6,154.8,28.6,154.3,29.6z M147.3,21.6c0.2-0.1,0.3-0.3,0.5-0.4v-5c-0.1,0.1-0.3,0-0.8-0.3
		c-0.6-0.4-1.2-0.6-1.7-0.6c-1,0-1.7,0.3-2.1,0.9c-0.4,0.6-0.6,1.5-0.6,2.8c0,1.1,0.2,1.9,0.7,2.6c0.5,0.7,1.2,1,2,1
		c0.3,0,0.8-0.2,1.4-0.6C146.9,21.8,147.1,21.7,147.3,21.6z"/>
	<polygon fill="#04243B" points="172.8,21.8 201,13.7 230.3,21.5 229.1,29 179.8,31.5 167.4,24 	"/>
	<path fill="#48C2D2" d="M157.5,29c-0.3,0-0.5-0.1-0.7-0.3s-0.3-0.4-0.3-0.7V4.3c0-0.3,0.1-0.5,0.3-0.7s0.4-0.3,0.7-0.3h19.1
		c0.3,0,0.5,0.1,0.7,0.3s0.3,0.4,0.3,0.7v4.8c0,0.3-0.1,0.5-0.3,0.7c-0.2,0.2-0.4,0.3-0.7,0.3h-11v2.6h9.4c0.3,0,0.5,0.1,0.7,0.3
		c0.2,0.2,0.3,0.4,0.3,0.7v4.7c0,0.3-0.1,0.5-0.3,0.7c-0.2,0.2-0.4,0.3-0.7,0.3l-9.4,0v2.8h11.9c0.3,0,0.5,0.1,0.7,0.3
		c0.2,0.2,0.3,0.4,0.3,0.7V28c0,0.3-0.1,0.5-0.3,0.7c-0.2,0.2-0.4,0.3-0.7,0.3H157.5z"/>
	<path fill="#48C2D2" d="M189.1,20V28c0,0.3-0.1,0.5-0.3,0.7c-0.2,0.2-0.4,0.3-0.7,0.3h-7.3c-0.3,0-0.5-0.1-0.7-0.3
		s-0.3-0.4-0.3-0.7V4.3c0-0.3,0.1-0.5,0.3-0.7s0.4-0.3,0.7-0.3h16.4c2.8,0,5.1,0.6,6.8,1.9c1.8,1.4,2.7,3.1,2.7,5.3
		c0,2.5-0.8,4.3-2.3,5.4c-0.4,0.3-0.8,0.6-1.3,0.8c-0.5,0.3-1,0.5-1.6,0.7c0.7,0.4,1.3,0.8,1.8,1.2c0.5,0.4,0.9,0.9,1.2,1.3l4.5,7.6
		c0.2,0.4,0.2,0.7,0,1c-0.2,0.3-0.5,0.5-0.9,0.5h-8.3c-0.2,0-0.3-0.1-0.5-0.2c-0.2-0.1-0.3-0.2-0.4-0.4l-4.2-7.8l0,0.1
		c-0.1-0.1-0.2-0.2-0.3-0.3s-0.2-0.2-0.3-0.3c-0.2-0.1-0.9-0.2-2-0.2H189.1z M188.9,9.2v4.9h3.9c1.6,0,2.8-0.2,3.6-0.6
		c0.8-0.4,1.2-1,1.2-2c0-0.8-0.3-1.4-0.9-1.8c-0.6-0.4-1.5-0.6-2.7-0.6H188.9z"/>
	<path fill="#48C2D2" d="M227.2,13.8c0.6,0.8,1.2,1.7,1.9,2.6v-12c0-0.3,0.1-0.5,0.3-0.7s0.4-0.3,0.7-0.3h6.4c0.3,0,0.5,0.1,0.7,0.3
		c0.2,0.2,0.3,0.4,0.3,0.7V28c0,0.3-0.1,0.5-0.3,0.7c-0.2,0.2-0.4,0.3-0.7,0.3h-7.3c-0.1,0-0.3,0-0.4-0.1c-0.2-0.1-0.3-0.2-0.4-0.3
		l-9.2-12.4V28c0,0.3-0.1,0.5-0.3,0.7c-0.2,0.2-0.4,0.3-0.7,0.3h-6.4c-0.3,0-0.5-0.1-0.7-0.3s-0.3-0.4-0.3-0.7V4.3
		c0-0.3,0.1-0.5,0.3-0.7s0.4-0.3,0.7-0.3h7.3c0.1,0,0.3,0,0.5,0.1c0.2,0.1,0.3,0.2,0.3,0.3c1,1.3,1.9,2.6,2.8,3.8
		c0.9,1.2,1.8,2.5,2.8,3.7C226,12.1,226.6,13,227.2,13.8z"/>
</g>
</svg>
