<?xml version="1.0" encoding="UTF-8"?><svg id="Layer_1" xmlns="http://www.w3.org/2000/svg" viewBox="0 0 293.61 280.45"><defs><style>.cls-1{fill:#fff;}.cls-2{fill:#4f68b1;}</style></defs><path class="cls-1" d="M293,232.33c-.85-3.32-2.29-6.09-3.6-8.35-2.74-4.77-5.5-9.52-8.26-14.28-2.58-4.46-5.17-8.91-7.74-13.38,5.99-13.42,9.59-28.03,11-44.48,1.82-21.33-1.6-42.74-10.16-63.64-8.08-19.73-20.68-37.25-37.44-52.05C215.33,17.2,190.15,5.5,161.94,1.39c-16.6-2.42-33.34-1.67-49.74,2.26C67.22,14.4,34.43,39.93,14.75,79.52-3.23,115.66-4.78,153.74,10.14,192.71c7.29,19.04,18.68,35.72,33.86,49.6,18.06,16.51,39.71,27.96,64.34,34.02,11.17,2.75,22.49,4.13,33.88,4.12,10.97,0,22.01-1.28,33.03-3.83,16.92-3.92,33.23-10.97,48.49-20.95,.82-.54,1.48-1.05,2.05-1.49,.19-.15,.39-.3,.61-.47,3.3-2.48,5.09-6.48,4.74-10.6-.03-.39-.08-.78-.15-1.16,4.33,1.48,8.63,2.95,12.9,4.4l10.61,3.62c1.38,.47,2.76,.96,4.14,1.46,3.69,1.32,7.5,2.68,11.58,3.76,6.5,1.71,13.19-.04,17.88-4.7,4.77-4.73,6.6-11.51,4.91-18.15Z"/><path class="cls-2" d="M25.12,147.78c.25,8.16,1.56,16.2,3.96,24.07,7.81,25.67,23.47,45.12,46.38,58.95,12.15,7.34,25.08,12.7,38.89,15.83,14.45,3.27,29.04,4.16,43.79,2.06,13.82-1.96,27.03-5.88,39.65-11.81,2-.94,3.74-1.05,5.76-.07,4.46,2.17,9.02,4.16,13.53,6.23,.62,.29,1.22,.62,2.1,1.08-.82,.62-1.39,1.1-2.02,1.51-13.76,9-28.57,15.58-44.63,19.3-20.47,4.75-40.9,4.77-61.33-.25-22.31-5.49-42.16-15.73-59.11-31.22-13.74-12.56-24.08-27.6-30.75-45.03-13.43-35.09-12.57-69.93,4.15-103.56C44.03,47.58,74.63,24.96,115,15.31c14.95-3.57,30.02-4.27,45.22-2.05,26.04,3.8,48.92,14.47,68.64,31.89,15.02,13.27,26.68,29.04,34.28,47.6,7.61,18.59,11.02,37.94,9.31,58.07-1.33,15.62-4.93,30.62-11.93,44.72-.35,.7-.27,1.95,.13,2.64,6.08,10.62,12.27,21.17,18.37,31.78,.97,1.68,1.9,3.47,2.37,5.33,1.31,5.14-2.97,9.64-8.1,8.29-5.05-1.33-9.94-3.27-14.9-4.97-17.65-6.03-35.31-12.03-52.92-18.14-2.08-.72-3.64-.02-5.35,.77-9.66,4.48-19.54,8.46-29.97,10.62-44.01,9.13-82.66-1.79-115.58-32.18-11.47-10.58-20.18-23.41-25.39-38.32-1.56-4.46-2.71-9.07-4.04-13.58Zm37.19-22.44c-.96-1.17-1.78-2.1-2.53-3.09-5.98-7.85-11.91-15.73-17.95-23.53-.54-.7-2-1.49-2.5-1.22-.78,.41-1.54,1.69-1.54,2.6-.03,21.49,0,42.98,.19,64.47,.01,1.66,.78,3.64,1.88,4.88,1.96,2.21,4.67,2.64,7.49,1.43,2.86-1.23,4.01-3.56,4.02-6.53,.03-7.77,.02-15.54,.03-23.31,0-.72,0-1.44,0-2.16,1.01,.47,1.53,1.09,2.03,1.72,2.41,3.09,4.81,6.19,7.22,9.27,1.67,2.13,1.9,2.13,3.55,.09,2.17-2.66,4.32-5.32,6.51-7.96,.9-1.09,1.87-2.11,2.81-3.16,.45,.95,.45,1.7,.45,2.44,0,7.7-.01,15.4,.01,23.1,0,.89,.08,1.84,.38,2.67,1.12,3.06,3.78,4.48,7.42,4.1,3.17-.33,5.42-2.47,5.83-5.63,.17-1.32,.3-2.65,.3-3.97,0-20.09-.04-40.18-.07-60.27,0-.91,0-1.83-.14-2.72-.28-1.68-1.8-2.19-3.1-1.07-.42,.36-.76,.82-1.11,1.26-4.65,5.86-9.29,11.73-13.95,17.59-2.34,2.94-4.72,5.86-7.25,8.99Zm169.04,6.97c-1.08-1.35-1.78-2.2-2.46-3.06-7.99-10.17-15.96-20.36-24.03-30.48-.68-.86-2.06-1.77-3.01-1.66-1.58,.18-1.57,1.81-1.57,3.2,.05,11.83,.03,23.65,.11,35.48,.07,9.79,.21,19.59,.38,29.38,.05,3.04,2.04,5.3,4.94,5.95,5.06,1.13,8.68-1.75,8.76-6.97,.13-8.39,.25-16.79,.39-25.18,0-.51,.13-1.02,.28-2.21,3.61,4.37,6.85,8.28,10.07,12.21,5.54,6.76,11.05,13.54,16.62,20.28,.43,.52,1.48,1.17,1.78,.99,.61-.36,1.08-1.21,1.26-1.94,.23-.93,.14-1.95,.14-2.92,.05-19.94,.09-39.88,.11-59.83,0-1.18-.12-2.39-.42-3.52-.83-3.15-4.38-5.44-7.59-5.02-3.55,.47-5.69,2.89-5.77,6.56-.02,.98-.01,1.96-.01,2.94,0,8.39,0,16.78,0,25.83Zm-54.03,8.11c.86-.52,1.33-.81,1.81-1.1,8.62-5.1,12.71-13.99,11.02-23.9-1.49-8.7-8.71-16.07-18.05-17.67-4.16-.71-8.5-.28-12.76-.51-7.69-.42-9.4,3.02-9.34,9.29,.18,19.18,.22,38.36,.35,57.54,.03,4.23,2.68,6.87,6.76,6.89,4.35,.02,6.95-2.5,6.99-6.86,.05-5.18,.05-10.36,.08-15.54,0-.48,.12-.97,.24-1.87,.51,.65,.73,.9,.93,1.17,4.58,6.27,9.24,12.49,13.72,18.83,2.05,2.91,4.78,4.26,8.18,4.29,2.65,.02,5.2-.58,6.68-3.13,1.46-2.5,.21-4.5-1.3-6.48-3.1-4.06-6.14-8.16-9.16-12.29-2.06-2.81-4.03-5.68-6.14-8.68Zm-73.75-6.78h.04c0,9.8-.01,19.6,0,29.4,0,4.45,2.42,7.02,6.78,7.04,8.33,.03,16.66,0,24.99-.11,4.06-.05,6.75-3.32,6.67-7.83-.07-4.24-2.6-6.8-6.82-6.82-4.48-.03-8.96,.02-13.44,0-2.6,0-3.89-1.22-3.95-3.81-.07-2.66-.07-5.32-.03-7.98,.03-2.29,1.05-3.32,3.35-3.38,2.17-.05,4.34,0,6.51-.02,4.53-.03,7.75-2.94,7.78-7.04,.04-4.36-3.18-7.72-7.59-7.86-2.31-.07-4.62,.02-6.93-.05-2.32-.08-3.08-.92-3.08-3.28,0-1.96,.01-3.92,.03-5.88,.03-3.17,1.28-4.46,4.43-4.48,4.13-.02,8.28,.2,12.38-.12,1.8-.14,3.84-.98,5.22-2.14,2.28-1.93,2.63-4.74,1.53-7.51-1.17-2.96-3.53-4.48-6.7-4.5-7.84-.05-15.68-.05-23.52-.04-4.97,0-7.63,2.66-7.64,7.63-.03,9.59,0,19.18,0,28.77Zm155.76,16.07c-1.88,9.37-5.54,18.09-9.69,26.64-.2,.4-.35,1.02-.18,1.37,.83,1.8,1.77,3.55,2.67,5.32,3.34-11.04,7.39-21.71,7.2-33.33Zm-95.11-29.69c0,1.12-.02,2.24,0,3.36,.06,2.6,1.82,4.22,4.45,4.14,4.08-.13,7.53-3.76,7.47-7.85-.07-4.05-3.51-7.46-7.57-7.49-2.63-.02-4.21,1.45-4.33,4.07-.05,1.26,0,2.52,0,3.78h-.02Z"/></svg>